<?xml version="1.0" encoding="utf-8" standalone="no"?>
<!DOCTYPE svg PUBLIC "-//W3C//DTD SVG 1.1//EN"
  "http://www.w3.org/Graphics/SVG/1.1/DTD/svg11.dtd">
<svg xmlns:xlink="http://www.w3.org/1999/xlink" width="537.44125pt" height="349.631875pt" viewBox="0 0 537.44125 349.631875" xmlns="http://www.w3.org/2000/svg" version="1.1">
 <metadata>
  <rdf:RDF xmlns:dc="http://purl.org/dc/elements/1.1/" xmlns:cc="http://creativecommons.org/ns#" xmlns:rdf="http://www.w3.org/1999/02/22-rdf-syntax-ns#">
   <cc:Work>
    <dc:type rdf:resource="http://purl.org/dc/dcmitype/StillImage"/>
    <dc:date>2026-06-17T11:45:55.311885</dc:date>
    <dc:format>image/svg+xml</dc:format>
    <dc:creator>
     <cc:Agent>
      <dc:title>Matplotlib v3.10.9, https://matplotlib.org/</dc:title>
     </cc:Agent>
    </dc:creator>
   </cc:Work>
  </rdf:RDF>
 </metadata>
 <defs>
  <style type="text/css">*{stroke-linejoin: round; stroke-linecap: butt}</style>
 </defs>
 <g id="figure_1">
  <g id="patch_1">
   <path d="M 0 349.631875 
L 537.44125 349.631875 
L 537.44125 0 
L 0 0 
z
" style="fill: #fcfcfd"/>
  </g>
  <g id="axes_1">
   <g id="patch_2">
    <path d="M 61.52125 322.2 
L 530.24125 322.2 
L 530.24125 52.2 
L 61.52125 52.2 
z
" style="fill: #ffffff"/>
   </g>
   <g id="matplotlib.axis_1">
    <g id="xtick_1">
     <g id="text_1">
      <!-- Bouncers -->
      <g style="fill: #262626" transform="translate(117.343047 339.843437) scale(0.11 -0.11)">
       <defs>
        <path id="SegoeUI-42" d="M 588 0 
L 588 4481 
L 1863 4481 
Q 2444 4481 2784 4197 
Q 3125 3913 3125 3456 
Q 3125 3075 2919 2794 
Q 2713 2513 2350 2394 
L 2350 2381 
Q 2803 2328 3075 2039 
Q 3347 1750 3347 1288 
Q 3347 713 2934 356 
Q 2522 0 1894 0 
L 588 0 
z
M 1113 4006 
L 1113 2559 
L 1650 2559 
Q 2081 2559 2328 2767 
Q 2575 2975 2575 3353 
Q 2575 4006 1716 4006 
L 1113 4006 
z
M 1113 2088 
L 1113 475 
L 1825 475 
Q 2288 475 2542 694 
Q 2797 913 2797 1294 
Q 2797 2088 1716 2088 
L 1113 2088 
z
" transform="scale(0.015625)"/>
        <path id="SegoeUI-6f" d="M 1856 -75 
Q 1147 -75 723 373 
Q 300 822 300 1563 
Q 300 2369 740 2822 
Q 1181 3275 1931 3275 
Q 2647 3275 3048 2834 
Q 3450 2394 3450 1613 
Q 3450 847 3017 386 
Q 2584 -75 1856 -75 
z
M 1894 2844 
Q 1400 2844 1112 2508 
Q 825 2172 825 1581 
Q 825 1013 1115 684 
Q 1406 356 1894 356 
Q 2391 356 2658 678 
Q 2925 1000 2925 1594 
Q 2925 2194 2658 2519 
Q 2391 2844 1894 2844 
z
" transform="scale(0.015625)"/>
        <path id="SegoeUI-75" d="M 3106 0 
L 2594 0 
L 2594 506 
L 2581 506 
Q 2263 -75 1594 -75 
Q 450 -75 450 1288 
L 450 3200 
L 959 3200 
L 959 1369 
Q 959 356 1734 356 
Q 2109 356 2351 632 
Q 2594 909 2594 1356 
L 2594 3200 
L 3106 3200 
L 3106 0 
z
" transform="scale(0.015625)"/>
        <path id="SegoeUI-6e" d="M 3175 0 
L 2663 0 
L 2663 1825 
Q 2663 2844 1919 2844 
Q 1534 2844 1282 2555 
Q 1031 2266 1031 1825 
L 1031 0 
L 519 0 
L 519 3200 
L 1031 3200 
L 1031 2669 
L 1044 2669 
Q 1406 3275 2094 3275 
Q 2619 3275 2897 2936 
Q 3175 2597 3175 1956 
L 3175 0 
z
" transform="scale(0.015625)"/>
        <path id="SegoeUI-63" d="M 2700 147 
Q 2331 -75 1825 -75 
Q 1141 -75 720 370 
Q 300 816 300 1525 
Q 300 2316 753 2795 
Q 1206 3275 1963 3275 
Q 2384 3275 2706 3119 
L 2706 2594 
Q 2350 2844 1944 2844 
Q 1453 2844 1139 2492 
Q 825 2141 825 1569 
Q 825 1006 1120 681 
Q 1416 356 1913 356 
Q 2331 356 2700 634 
L 2700 147 
z
" transform="scale(0.015625)"/>
        <path id="SegoeUI-65" d="M 3091 1472 
L 831 1472 
Q 844 938 1119 647 
Q 1394 356 1875 356 
Q 2416 356 2869 713 
L 2869 231 
Q 2447 -75 1753 -75 
Q 1075 -75 687 361 
Q 300 797 300 1588 
Q 300 2334 723 2804 
Q 1147 3275 1775 3275 
Q 2403 3275 2747 2869 
Q 3091 2463 3091 1741 
L 3091 1472 
z
M 2566 1906 
Q 2563 2350 2352 2597 
Q 2141 2844 1766 2844 
Q 1403 2844 1150 2584 
Q 897 2325 838 1906 
L 2566 1906 
z
" transform="scale(0.015625)"/>
        <path id="SegoeUI-72" d="M 2188 2681 
Q 2053 2784 1800 2784 
Q 1472 2784 1251 2475 
Q 1031 2166 1031 1631 
L 1031 0 
L 519 0 
L 519 3200 
L 1031 3200 
L 1031 2541 
L 1044 2541 
Q 1153 2878 1378 3067 
Q 1603 3256 1881 3256 
Q 2081 3256 2188 3213 
L 2188 2681 
z
" transform="scale(0.015625)"/>
        <path id="SegoeUI-73" d="M 325 116 
L 325 666 
Q 744 356 1247 356 
Q 1922 356 1922 806 
Q 1922 934 1864 1023 
Q 1806 1113 1707 1181 
Q 1609 1250 1476 1304 
Q 1344 1359 1191 1419 
Q 978 1503 817 1589 
Q 656 1675 548 1783 
Q 441 1891 386 2028 
Q 331 2166 331 2350 
Q 331 2575 434 2748 
Q 538 2922 709 3039 
Q 881 3156 1101 3215 
Q 1322 3275 1556 3275 
Q 1972 3275 2300 3131 
L 2300 2613 
Q 1947 2844 1488 2844 
Q 1344 2844 1228 2811 
Q 1113 2778 1030 2718 
Q 947 2659 901 2576 
Q 856 2494 856 2394 
Q 856 2269 901 2184 
Q 947 2100 1034 2034 
Q 1122 1969 1247 1916 
Q 1372 1863 1531 1800 
Q 1744 1719 1912 1633 
Q 2081 1547 2200 1439 
Q 2319 1331 2383 1190 
Q 2447 1050 2447 856 
Q 2447 619 2342 444 
Q 2238 269 2063 153 
Q 1888 38 1659 -18 
Q 1431 -75 1181 -75 
Q 688 -75 325 116 
z
" transform="scale(0.015625)"/>
       </defs>
       <use xlink:href="#SegoeUI-42"/>
       <use xlink:href="#SegoeUI-6f" transform="translate(57.324219 0)"/>
       <use xlink:href="#SegoeUI-75" transform="translate(115.917969 0)"/>
       <use xlink:href="#SegoeUI-6e" transform="translate(172.509766 0)"/>
       <use xlink:href="#SegoeUI-63" transform="translate(229.101562 0)"/>
       <use xlink:href="#SegoeUI-65" transform="translate(275.292969 0)"/>
       <use xlink:href="#SegoeUI-72" transform="translate(327.587891 0)"/>
       <use xlink:href="#SegoeUI-73" transform="translate(362.978516 0)"/>
      </g>
     </g>
    </g>
    <g id="xtick_2">
     <g id="text_2">
      <!-- Browsers -->
      <g style="fill: #262626" transform="translate(274.203516 339.843437) scale(0.11 -0.11)">
       <defs>
        <path id="SegoeUI-77" d="M 4550 3200 
L 3591 0 
L 3059 0 
L 2400 2291 
Q 2363 2422 2350 2588 
L 2338 2588 
Q 2328 2475 2272 2297 
L 1556 0 
L 1044 0 
L 75 3200 
L 613 3200 
L 1275 794 
Q 1306 684 1319 506 
L 1344 506 
Q 1353 644 1400 800 
L 2138 3200 
L 2606 3200 
L 3269 788 
Q 3300 672 3316 500 
L 3341 500 
Q 3347 622 3394 788 
L 4044 3200 
L 4550 3200 
z
" transform="scale(0.015625)"/>
       </defs>
       <use xlink:href="#SegoeUI-42"/>
       <use xlink:href="#SegoeUI-72" transform="translate(57.324219 0)"/>
       <use xlink:href="#SegoeUI-6f" transform="translate(90.714844 0)"/>
       <use xlink:href="#SegoeUI-77" transform="translate(149.308594 0)"/>
       <use xlink:href="#SegoeUI-73" transform="translate(221.574219 0)"/>
       <use xlink:href="#SegoeUI-65" transform="translate(264.005859 0)"/>
       <use xlink:href="#SegoeUI-72" transform="translate(316.300781 0)"/>
       <use xlink:href="#SegoeUI-73" transform="translate(351.691406 0)"/>
      </g>
     </g>
    </g>
    <g id="xtick_3">
     <g id="text_3">
      <!-- Engaged -->
      <g style="fill: #262626" transform="translate(430.834531 339.843437) scale(0.11 -0.11)">
       <defs>
        <path id="SegoeUI-45" d="M 2963 0 
L 588 0 
L 588 4481 
L 2863 4481 
L 2863 4006 
L 1113 4006 
L 1113 2516 
L 2731 2516 
L 2731 2044 
L 1113 2044 
L 1113 475 
L 2963 475 
L 2963 0 
z
" transform="scale(0.015625)"/>
        <path id="SegoeUI-67" d="M 3250 256 
Q 3250 -1506 1563 -1506 
Q 969 -1506 525 -1281 
L 525 -769 
Q 1066 -1069 1556 -1069 
Q 2738 -1069 2738 188 
L 2738 538 
L 2725 538 
Q 2359 -75 1625 -75 
Q 1028 -75 664 351 
Q 300 778 300 1497 
Q 300 2313 692 2794 
Q 1084 3275 1766 3275 
Q 2413 3275 2725 2756 
L 2738 2756 
L 2738 3200 
L 3250 3200 
L 3250 256 
z
M 2738 1447 
L 2738 1919 
Q 2738 2300 2480 2572 
Q 2222 2844 1838 2844 
Q 1363 2844 1094 2498 
Q 825 2153 825 1531 
Q 825 997 1083 676 
Q 1341 356 1766 356 
Q 2197 356 2467 662 
Q 2738 969 2738 1447 
z
" transform="scale(0.015625)"/>
        <path id="SegoeUI-61" d="M 2809 0 
L 2297 0 
L 2297 500 
L 2284 500 
Q 1950 -75 1300 -75 
Q 822 -75 551 178 
Q 281 431 281 850 
Q 281 1747 1338 1894 
L 2297 2028 
Q 2297 2844 1638 2844 
Q 1059 2844 594 2450 
L 594 2975 
Q 1066 3275 1681 3275 
Q 2809 3275 2809 2081 
L 2809 0 
z
M 2297 1619 
L 1525 1513 
Q 1169 1463 987 1336 
Q 806 1209 806 888 
Q 806 653 973 504 
Q 1141 356 1419 356 
Q 1800 356 2048 623 
Q 2297 891 2297 1300 
L 2297 1619 
z
" transform="scale(0.015625)"/>
        <path id="SegoeUI-64" d="M 3250 0 
L 2738 0 
L 2738 544 
L 2725 544 
Q 2369 -75 1625 -75 
Q 1022 -75 661 354 
Q 300 784 300 1525 
Q 300 2319 700 2797 
Q 1100 3275 1766 3275 
Q 2425 3275 2725 2756 
L 2738 2756 
L 2738 4738 
L 3250 4738 
L 3250 0 
z
M 2738 1447 
L 2738 1919 
Q 2738 2306 2481 2575 
Q 2225 2844 1831 2844 
Q 1363 2844 1094 2500 
Q 825 2156 825 1550 
Q 825 997 1083 676 
Q 1341 356 1775 356 
Q 2203 356 2470 665 
Q 2738 975 2738 1447 
z
" transform="scale(0.015625)"/>
       </defs>
       <use xlink:href="#SegoeUI-45"/>
       <use xlink:href="#SegoeUI-6e" transform="translate(50.585938 0)"/>
       <use xlink:href="#SegoeUI-67" transform="translate(107.177734 0)"/>
       <use xlink:href="#SegoeUI-61" transform="translate(166.064453 0)"/>
       <use xlink:href="#SegoeUI-67" transform="translate(216.943359 0)"/>
       <use xlink:href="#SegoeUI-65" transform="translate(275.830078 0)"/>
       <use xlink:href="#SegoeUI-64" transform="translate(328.125 0)"/>
      </g>
     </g>
    </g>
   </g>
   <g id="matplotlib.axis_2">
    <g id="ytick_1">
     <g id="line2d_1">
      <path d="M 61.52125 322.2 
L 530.24125 322.2 
" clip-path="url(#p7506a4dc8b)" style="fill: none; stroke: #e6e8f0; stroke-width: 0.8; stroke-linecap: round"/>
     </g>
     <g id="text_4">
      <!-- 0.0% -->
      <g style="fill: #262626" transform="translate(28.773438 326.271719) scale(0.11 -0.11)">
       <defs>
        <path id="SegoeUI-30" d="M 3188 2259 
Q 3188 1697 3086 1262 
Q 2984 828 2792 529 
Q 2600 231 2320 76 
Q 2041 -78 1684 -78 
Q 1347 -78 1083 70 
Q 819 219 637 503 
Q 456 788 362 1202 
Q 269 1616 269 2150 
Q 269 2738 367 3188 
Q 466 3638 656 3942 
Q 847 4247 1130 4401 
Q 1413 4556 1778 4556 
Q 3188 4556 3188 2259 
z
M 2663 2209 
Q 2663 4122 1753 4122 
Q 794 4122 794 2175 
Q 794 359 1734 359 
Q 2663 359 2663 2209 
z
" transform="scale(0.015625)"/>
        <path id="SegoeUI-2e" d="M 697 -69 
Q 553 -69 451 34 
Q 350 138 350 281 
Q 350 425 451 529 
Q 553 634 697 634 
Q 844 634 947 529 
Q 1050 425 1050 281 
Q 1050 138 947 34 
Q 844 -69 697 -69 
z
" transform="scale(0.015625)"/>
        <path id="SegoeUI-25" d="M 1263 2234 
Q 800 2234 525 2539 
Q 250 2844 250 3353 
Q 250 3909 540 4229 
Q 831 4550 1325 4550 
Q 1803 4550 2067 4253 
Q 2331 3956 2331 3419 
Q 2331 2881 2036 2557 
Q 1741 2234 1263 2234 
z
M 1306 4206 
Q 1009 4206 837 3986 
Q 666 3766 666 3381 
Q 666 3003 834 2792 
Q 1003 2581 1294 2581 
Q 1588 2581 1753 2800 
Q 1919 3019 1919 3406 
Q 1919 3784 1755 3995 
Q 1591 4206 1306 4206 
z
M 4263 4481 
L 1388 -31 
L 941 -31 
L 3813 4481 
L 4263 4481 
z
M 3931 -69 
Q 3469 -69 3194 237 
Q 2919 544 2919 1050 
Q 2919 1606 3212 1929 
Q 3506 2253 3994 2253 
Q 4469 2253 4734 1953 
Q 5000 1653 5000 1113 
Q 5000 578 4704 254 
Q 4409 -69 3931 -69 
z
M 3975 1900 
Q 3675 1900 3504 1681 
Q 3334 1463 3334 1075 
Q 3334 703 3503 492 
Q 3672 281 3963 281 
Q 4256 281 4422 501 
Q 4588 722 4588 1106 
Q 4588 1488 4423 1694 
Q 4259 1900 3975 1900 
z
" transform="scale(0.015625)"/>
       </defs>
       <use xlink:href="#SegoeUI-30"/>
       <use xlink:href="#SegoeUI-2e" transform="translate(53.90625 0)"/>
       <use xlink:href="#SegoeUI-30" transform="translate(75.585938 0)"/>
       <use xlink:href="#SegoeUI-25" transform="translate(129.492188 0)"/>
      </g>
     </g>
    </g>
    <g id="ytick_2">
     <g id="line2d_2">
      <path d="M 61.52125 270.49916 
L 530.24125 270.49916 
" clip-path="url(#p7506a4dc8b)" style="fill: none; stroke: #e6e8f0; stroke-width: 0.8; stroke-linecap: round"/>
     </g>
     <g id="text_5">
      <!-- 5.0% -->
      <g style="fill: #262626" transform="translate(28.773438 274.570878) scale(0.11 -0.11)">
       <defs>
        <path id="SegoeUI-35" d="M 3028 1369 
Q 3028 1041 2915 775 
Q 2803 509 2595 318 
Q 2388 128 2094 25 
Q 1800 -78 1441 -78 
Q 816 -78 513 109 
L 513 653 
Q 969 359 1447 359 
Q 1691 359 1886 431 
Q 2081 503 2218 631 
Q 2356 759 2429 940 
Q 2503 1122 2503 1338 
Q 2503 1775 2209 2023 
Q 1916 2272 1356 2272 
Q 1266 2272 1166 2269 
Q 1066 2266 966 2261 
Q 866 2256 770 2250 
Q 675 2244 597 2234 
L 750 4481 
L 2822 4481 
L 2822 4019 
L 1194 4019 
L 1103 2703 
Q 1203 2709 1315 2714 
Q 1428 2719 1516 2719 
Q 1872 2719 2153 2625 
Q 2434 2531 2629 2357 
Q 2825 2184 2926 1932 
Q 3028 1681 3028 1369 
z
" transform="scale(0.015625)"/>
       </defs>
       <use xlink:href="#SegoeUI-35"/>
       <use xlink:href="#SegoeUI-2e" transform="translate(53.90625 0)"/>
       <use xlink:href="#SegoeUI-30" transform="translate(75.585938 0)"/>
       <use xlink:href="#SegoeUI-25" transform="translate(129.492188 0)"/>
      </g>
     </g>
    </g>
    <g id="ytick_3">
     <g id="line2d_3">
      <path d="M 61.52125 218.798319 
L 530.24125 218.798319 
" clip-path="url(#p7506a4dc8b)" style="fill: none; stroke: #e6e8f0; stroke-width: 0.8; stroke-linecap: round"/>
     </g>
     <g id="text_6">
      <!-- 10.0% -->
      <g style="fill: #262626" transform="translate(22.84375 222.870038) scale(0.11 -0.11)">
       <defs>
        <path id="SegoeUI-31" d="M 2263 0 
L 1750 0 
L 1750 3872 
Q 1691 3813 1577 3736 
Q 1463 3659 1320 3584 
Q 1178 3509 1020 3443 
Q 863 3378 713 3341 
L 713 3859 
Q 881 3906 1070 3986 
Q 1259 4066 1442 4164 
Q 1625 4263 1787 4370 
Q 1950 4478 2069 4581 
L 2263 4581 
L 2263 0 
z
" transform="scale(0.015625)"/>
       </defs>
       <use xlink:href="#SegoeUI-31"/>
       <use xlink:href="#SegoeUI-30" transform="translate(53.90625 0)"/>
       <use xlink:href="#SegoeUI-2e" transform="translate(107.8125 0)"/>
       <use xlink:href="#SegoeUI-30" transform="translate(129.492188 0)"/>
       <use xlink:href="#SegoeUI-25" transform="translate(183.398438 0)"/>
      </g>
     </g>
    </g>
    <g id="ytick_4">
     <g id="line2d_4">
      <path d="M 61.52125 167.097479 
L 530.24125 167.097479 
" clip-path="url(#p7506a4dc8b)" style="fill: none; stroke: #e6e8f0; stroke-width: 0.8; stroke-linecap: round"/>
     </g>
     <g id="text_7">
      <!-- 15.0% -->
      <g style="fill: #262626" transform="translate(22.84375 171.169198) scale(0.11 -0.11)">
       <use xlink:href="#SegoeUI-31"/>
       <use xlink:href="#SegoeUI-35" transform="translate(53.90625 0)"/>
       <use xlink:href="#SegoeUI-2e" transform="translate(107.8125 0)"/>
       <use xlink:href="#SegoeUI-30" transform="translate(129.492188 0)"/>
       <use xlink:href="#SegoeUI-25" transform="translate(183.398438 0)"/>
      </g>
     </g>
    </g>
    <g id="ytick_5">
     <g id="line2d_5">
      <path d="M 61.52125 115.396639 
L 530.24125 115.396639 
" clip-path="url(#p7506a4dc8b)" style="fill: none; stroke: #e6e8f0; stroke-width: 0.8; stroke-linecap: round"/>
     </g>
     <g id="text_8">
      <!-- 20.0% -->
      <g style="fill: #262626" transform="translate(22.84375 119.468357) scale(0.11 -0.11)">
       <defs>
        <path id="SegoeUI-32" d="M 2413 3306 
Q 2413 3513 2348 3666 
Q 2284 3819 2173 3920 
Q 2063 4022 1913 4072 
Q 1763 4122 1588 4122 
Q 1438 4122 1294 4081 
Q 1150 4041 1014 3969 
Q 878 3897 751 3797 
Q 625 3697 516 3575 
L 516 4125 
Q 731 4334 998 4445 
Q 1266 4556 1650 4556 
Q 1925 4556 2159 4476 
Q 2394 4397 2566 4244 
Q 2738 4091 2836 3866 
Q 2934 3641 2934 3350 
Q 2934 3084 2873 2868 
Q 2813 2653 2689 2462 
Q 2566 2272 2378 2097 
Q 2191 1922 1938 1741 
Q 1622 1516 1417 1356 
Q 1213 1197 1092 1058 
Q 972 919 923 780 
Q 875 641 875 459 
L 3106 459 
L 3106 0 
L 341 0 
L 341 222 
Q 341 509 403 728 
Q 466 947 609 1144 
Q 753 1341 986 1537 
Q 1219 1734 1556 1981 
Q 1800 2156 1964 2315 
Q 2128 2475 2228 2634 
Q 2328 2794 2370 2958 
Q 2413 3122 2413 3306 
z
" transform="scale(0.015625)"/>
       </defs>
       <use xlink:href="#SegoeUI-32"/>
       <use xlink:href="#SegoeUI-30" transform="translate(53.90625 0)"/>
       <use xlink:href="#SegoeUI-2e" transform="translate(107.8125 0)"/>
       <use xlink:href="#SegoeUI-30" transform="translate(129.492188 0)"/>
       <use xlink:href="#SegoeUI-25" transform="translate(183.398438 0)"/>
      </g>
     </g>
    </g>
    <g id="ytick_6">
     <g id="line2d_6">
      <path d="M 61.52125 63.695798 
L 530.24125 63.695798 
" clip-path="url(#p7506a4dc8b)" style="fill: none; stroke: #e6e8f0; stroke-width: 0.8; stroke-linecap: round"/>
     </g>
     <g id="text_9">
      <!-- 25.0% -->
      <g style="fill: #262626" transform="translate(22.84375 67.767517) scale(0.11 -0.11)">
       <use xlink:href="#SegoeUI-32"/>
       <use xlink:href="#SegoeUI-35" transform="translate(53.90625 0)"/>
       <use xlink:href="#SegoeUI-2e" transform="translate(107.8125 0)"/>
       <use xlink:href="#SegoeUI-30" transform="translate(129.492188 0)"/>
       <use xlink:href="#SegoeUI-25" transform="translate(183.398438 0)"/>
      </g>
     </g>
    </g>
    <g id="text_10">
     <!-- Actual purchase rate -->
     <g style="fill: #1f2430" transform="translate(16.08375 241.157812) rotate(-90) scale(0.12 -0.12)">
      <defs>
       <path id="SegoeUI-41" d="M 4056 0 
L 3475 0 
L 3000 1256 
L 1100 1256 
L 653 0 
L 69 0 
L 1788 4481 
L 2331 4481 
L 4056 0 
z
M 2828 1728 
L 2125 3638 
Q 2091 3731 2056 3938 
L 2044 3938 
Q 2013 3747 1972 3638 
L 1275 1728 
L 2828 1728 
z
" transform="scale(0.015625)"/>
       <path id="SegoeUI-74" d="M 2003 31 
Q 1822 -69 1525 -69 
Q 684 -69 684 869 
L 684 2763 
L 134 2763 
L 134 3200 
L 684 3200 
L 684 3981 
L 1197 4147 
L 1197 3200 
L 2003 3200 
L 2003 2763 
L 1197 2763 
L 1197 959 
Q 1197 638 1306 500 
Q 1416 363 1669 363 
Q 1863 363 2003 469 
L 2003 31 
z
" transform="scale(0.015625)"/>
       <path id="SegoeUI-6c" d="M 1031 0 
L 519 0 
L 519 4738 
L 1031 4738 
L 1031 0 
z
" transform="scale(0.015625)"/>
       <path id="SegoeUI-20" transform="scale(0.015625)"/>
       <path id="SegoeUI-70" d="M 1044 463 
L 1031 463 
L 1031 -1472 
L 519 -1472 
L 519 3200 
L 1031 3200 
L 1031 2638 
L 1044 2638 
Q 1422 3275 2150 3275 
Q 2769 3275 3116 2845 
Q 3463 2416 3463 1694 
Q 3463 891 3072 408 
Q 2681 -75 2003 -75 
Q 1381 -75 1044 463 
z
M 1031 1753 
L 1031 1306 
Q 1031 909 1289 632 
Q 1547 356 1944 356 
Q 2409 356 2673 712 
Q 2938 1069 2938 1703 
Q 2938 2238 2691 2541 
Q 2444 2844 2022 2844 
Q 1575 2844 1303 2533 
Q 1031 2222 1031 1753 
z
" transform="scale(0.015625)"/>
       <path id="SegoeUI-68" d="M 3175 0 
L 2663 0 
L 2663 1844 
Q 2663 2844 1919 2844 
Q 1544 2844 1287 2555 
Q 1031 2266 1031 1813 
L 1031 0 
L 519 0 
L 519 4738 
L 1031 4738 
L 1031 2669 
L 1044 2669 
Q 1413 3275 2094 3275 
Q 3175 3275 3175 1972 
L 3175 0 
z
" transform="scale(0.015625)"/>
      </defs>
      <use xlink:href="#SegoeUI-41"/>
      <use xlink:href="#SegoeUI-63" transform="translate(64.501953 0)"/>
      <use xlink:href="#SegoeUI-74" transform="translate(110.693359 0)"/>
      <use xlink:href="#SegoeUI-75" transform="translate(144.580078 0)"/>
      <use xlink:href="#SegoeUI-61" transform="translate(201.171875 0)"/>
      <use xlink:href="#SegoeUI-6c" transform="translate(252.050781 0)"/>
      <use xlink:href="#SegoeUI-20" transform="translate(276.269531 0)"/>
      <use xlink:href="#SegoeUI-70" transform="translate(303.662109 0)"/>
      <use xlink:href="#SegoeUI-75" transform="translate(362.451172 0)"/>
      <use xlink:href="#SegoeUI-72" transform="translate(419.042969 0)"/>
      <use xlink:href="#SegoeUI-63" transform="translate(452.433594 0)"/>
      <use xlink:href="#SegoeUI-68" transform="translate(498.625 0)"/>
      <use xlink:href="#SegoeUI-61" transform="translate(555.216797 0)"/>
      <use xlink:href="#SegoeUI-73" transform="translate(606.095703 0)"/>
      <use xlink:href="#SegoeUI-65" transform="translate(648.527344 0)"/>
      <use xlink:href="#SegoeUI-20" transform="translate(700.822266 0)"/>
      <use xlink:href="#SegoeUI-72" transform="translate(728.214844 0)"/>
      <use xlink:href="#SegoeUI-61" transform="translate(762.980469 0)"/>
      <use xlink:href="#SegoeUI-74" transform="translate(813.859375 0)"/>
      <use xlink:href="#SegoeUI-65" transform="translate(846.996094 0)"/>
     </g>
    </g>
   </g>
   <g id="patch_3">
    <path d="M 77.14525 322.2 
L 139.64125 322.2 
L 139.64125 317.723737 
L 77.14525 317.723737 
z
" clip-path="url(#p7506a4dc8b)" style="fill: #aec2ef; stroke: #1f2430; stroke-linejoin: miter"/>
   </g>
   <g id="patch_4">
    <path d="M 233.38525 322.2 
L 295.88125 322.2 
L 295.88125 168.575521 
L 233.38525 168.575521 
z
" clip-path="url(#p7506a4dc8b)" style="fill: #aec2ef; stroke: #1f2430; stroke-linejoin: miter"/>
   </g>
   <g id="patch_5">
    <path d="M 389.62525 322.2 
L 452.12125 322.2 
L 452.12125 65.057143 
L 389.62525 65.057143 
z
" clip-path="url(#p7506a4dc8b)" style="fill: #aec2ef; stroke: #1f2430; stroke-linejoin: miter"/>
   </g>
   <g id="patch_6">
    <path d="M 139.64125 322.2 
L 202.13725 322.2 
L 202.13725 317.664839 
L 139.64125 317.664839 
z
" clip-path="url(#p7506a4dc8b)" style="fill: #ebd470; stroke: #1f2430; stroke-linejoin: miter"/>
   </g>
   <g id="patch_7">
    <path d="M 295.88125 322.2 
L 358.37725 322.2 
L 358.37725 158.909773 
L 295.88125 158.909773 
z
" clip-path="url(#p7506a4dc8b)" style="fill: #ebd470; stroke: #1f2430; stroke-linejoin: miter"/>
   </g>
   <g id="patch_8">
    <path d="M 452.12125 322.2 
L 514.61725 322.2 
L 514.61725 106.707422 
L 452.12125 106.707422 
z
" clip-path="url(#p7506a4dc8b)" style="fill: #ebd470; stroke: #1f2430; stroke-linejoin: miter"/>
   </g>
   <g id="patch_9">
    <path d="M 139.64125 322.2 
L 139.64125 322.2 
L 139.64125 322.2 
L 139.64125 322.2 
z
" clip-path="url(#p7506a4dc8b)" style="fill: #aec2ef; stroke: #1f2430; stroke-linejoin: miter"/>
   </g>
   <g id="patch_10">
    <path d="M 139.64125 322.2 
L 139.64125 322.2 
L 139.64125 322.2 
L 139.64125 322.2 
z
" clip-path="url(#p7506a4dc8b)" style="fill: #ebd470; stroke: #1f2430; stroke-linejoin: miter"/>
   </g>
   <g id="line2d_7">
    <path clip-path="url(#p7506a4dc8b)" style="fill: none; stroke: #424242; stroke-width: 2.25; stroke-linecap: round"/>
   </g>
   <g id="line2d_8">
    <path clip-path="url(#p7506a4dc8b)" style="fill: none; stroke: #424242; stroke-width: 2.25; stroke-linecap: round"/>
   </g>
   <g id="line2d_9">
    <path clip-path="url(#p7506a4dc8b)" style="fill: none; stroke: #424242; stroke-width: 2.25; stroke-linecap: round"/>
   </g>
   <g id="line2d_10">
    <path clip-path="url(#p7506a4dc8b)" style="fill: none; stroke: #424242; stroke-width: 2.25; stroke-linecap: round"/>
   </g>
   <g id="line2d_11">
    <path clip-path="url(#p7506a4dc8b)" style="fill: none; stroke: #424242; stroke-width: 2.25; stroke-linecap: round"/>
   </g>
   <g id="line2d_12">
    <path clip-path="url(#p7506a4dc8b)" style="fill: none; stroke: #424242; stroke-width: 2.25; stroke-linecap: round"/>
   </g>
   <g id="line2d_13">
    <path d="M 61.52125 160.552801 
L 530.24125 160.552801 
" clip-path="url(#p7506a4dc8b)" style="fill: none; stroke-dasharray: 1,1.65; stroke-dashoffset: 0; stroke: #1f2430"/>
   </g>
   <g id="patch_11">
    <path d="M 61.52125 322.2 
L 61.52125 52.2 
" style="fill: none; stroke: #d7dbe7; stroke-width: 1.25; stroke-linejoin: miter; stroke-linecap: square"/>
   </g>
   <g id="patch_12">
    <path d="M 61.52125 322.2 
L 530.24125 322.2 
" style="fill: none; stroke: #d7dbe7; stroke-width: 1.25; stroke-linejoin: miter; stroke-linecap: square"/>
   </g>
   <g id="legend_1">
    <g id="patch_13">
     <path d="M 71.42125 70.243437 
L 93.42125 70.243437 
L 93.42125 62.543437 
L 71.42125 62.543437 
z
" style="fill: #aec2ef; stroke: #1f2430; stroke-linejoin: miter"/>
    </g>
    <g id="text_11">
     <!-- Train -->
     <g style="fill: #262626" transform="translate(102.22125 70.243437) scale(0.11 -0.11)">
      <defs>
       <path id="SegoeUI-54" d="M 3238 4006 
L 1944 4006 
L 1944 0 
L 1419 0 
L 1419 4006 
L 128 4006 
L 128 4481 
L 3238 4481 
L 3238 4006 
z
" transform="scale(0.015625)"/>
       <path id="SegoeUI-69" d="M 781 4013 
Q 644 4013 547 4106 
Q 450 4200 450 4344 
Q 450 4488 547 4583 
Q 644 4678 781 4678 
Q 922 4678 1020 4583 
Q 1119 4488 1119 4344 
Q 1119 4206 1020 4109 
Q 922 4013 781 4013 
z
M 1031 0 
L 519 0 
L 519 3200 
L 1031 3200 
L 1031 0 
z
" transform="scale(0.015625)"/>
      </defs>
      <use xlink:href="#SegoeUI-54"/>
      <use xlink:href="#SegoeUI-72" transform="translate(43.642578 0)"/>
      <use xlink:href="#SegoeUI-61" transform="translate(78.408203 0)"/>
      <use xlink:href="#SegoeUI-69" transform="translate(129.287109 0)"/>
      <use xlink:href="#SegoeUI-6e" transform="translate(153.505859 0)"/>
     </g>
    </g>
    <g id="patch_14">
     <path d="M 71.42125 86.416875 
L 93.42125 86.416875 
L 93.42125 78.716875 
L 71.42125 78.716875 
z
" style="fill: #ebd470; stroke: #1f2430; stroke-linejoin: miter"/>
    </g>
    <g id="text_12">
     <!-- Held-out test -->
     <g style="fill: #262626" transform="translate(102.22125 86.416875) scale(0.11 -0.11)">
      <defs>
       <path id="SegoeUI-48" d="M 3956 0 
L 3431 0 
L 3431 2044 
L 1113 2044 
L 1113 0 
L 588 0 
L 588 4481 
L 1113 4481 
L 1113 2516 
L 3431 2516 
L 3431 4481 
L 3956 4481 
L 3956 0 
z
" transform="scale(0.015625)"/>
       <path id="SegoeUI-2d" d="M 2156 1581 
L 450 1581 
L 450 1984 
L 2156 1984 
L 2156 1581 
z
" transform="scale(0.015625)"/>
      </defs>
      <use xlink:href="#SegoeUI-48"/>
      <use xlink:href="#SegoeUI-65" transform="translate(70.996094 0)"/>
      <use xlink:href="#SegoeUI-6c" transform="translate(123.291016 0)"/>
      <use xlink:href="#SegoeUI-64" transform="translate(147.509766 0)"/>
      <use xlink:href="#SegoeUI-2d" transform="translate(206.396484 0)"/>
      <use xlink:href="#SegoeUI-6f" transform="translate(246.386719 0)"/>
      <use xlink:href="#SegoeUI-75" transform="translate(304.980469 0)"/>
      <use xlink:href="#SegoeUI-74" transform="translate(361.572266 0)"/>
      <use xlink:href="#SegoeUI-20" transform="translate(395.458984 0)"/>
      <use xlink:href="#SegoeUI-74" transform="translate(422.851562 0)"/>
      <use xlink:href="#SegoeUI-65" transform="translate(455.988281 0)"/>
      <use xlink:href="#SegoeUI-73" transform="translate(508.283203 0)"/>
      <use xlink:href="#SegoeUI-74" transform="translate(550.714844 0)"/>
     </g>
    </g>
   </g>
  </g>
  <g id="text_13">
   <!-- Cluster meaning generalizes to held-out sessions -->
   <g style="fill: #1f2430" transform="translate(61.52125 16.824062) scale(0.13 -0.13)">
    <defs>
     <path id="SegoeUI-Semibold-43" d="M 3678 188 
Q 3172 -75 2419 -75 
Q 1444 -75 856 540 
Q 269 1156 269 2156 
Q 269 3231 930 3893 
Q 1591 4556 2600 4556 
Q 3250 4556 3678 4372 
L 3678 3634 
Q 3225 3903 2678 3903 
Q 1950 3903 1498 3437 
Q 1047 2972 1047 2194 
Q 1047 1453 1469 1014 
Q 1891 575 2578 575 
Q 3213 575 3678 875 
L 3678 188 
z
" transform="scale(0.015625)"/>
     <path id="SegoeUI-Semibold-6c" d="M 1200 0 
L 472 0 
L 472 4738 
L 1200 4738 
L 1200 0 
z
" transform="scale(0.015625)"/>
     <path id="SegoeUI-Semibold-75" d="M 3263 0 
L 2538 0 
L 2538 506 
L 2525 506 
Q 2209 -75 1544 -75 
Q 409 -75 409 1288 
L 409 3200 
L 1134 3200 
L 1134 1363 
Q 1134 500 1800 500 
Q 2122 500 2330 737 
Q 2538 975 2538 1359 
L 2538 3200 
L 3263 3200 
L 3263 0 
z
" transform="scale(0.015625)"/>
     <path id="SegoeUI-Semibold-73" d="M 272 100 
L 272 772 
Q 678 463 1169 463 
Q 1825 463 1825 850 
Q 1825 959 1769 1036 
Q 1713 1113 1617 1172 
Q 1522 1231 1392 1278 
Q 1263 1325 1103 1384 
Q 906 1463 748 1550 
Q 591 1638 486 1748 
Q 381 1859 328 2000 
Q 275 2141 275 2328 
Q 275 2559 384 2736 
Q 494 2913 678 3033 
Q 863 3153 1097 3214 
Q 1331 3275 1581 3275 
Q 2025 3275 2375 3141 
L 2375 2506 
Q 2038 2738 1600 2738 
Q 1463 2738 1352 2709 
Q 1241 2681 1162 2631 
Q 1084 2581 1040 2511 
Q 997 2441 997 2356 
Q 997 2253 1040 2181 
Q 1084 2109 1170 2054 
Q 1256 2000 1376 1954 
Q 1497 1909 1653 1856 
Q 1859 1772 2023 1684 
Q 2188 1597 2303 1486 
Q 2419 1375 2481 1229 
Q 2544 1084 2544 884 
Q 2544 641 2431 459 
Q 2319 278 2131 159 
Q 1944 41 1698 -17 
Q 1453 -75 1181 -75 
Q 656 -75 272 100 
z
" transform="scale(0.015625)"/>
     <path id="SegoeUI-Semibold-74" d="M 2159 34 
Q 1947 -72 1600 -72 
Q 669 -72 669 822 
L 669 2631 
L 134 2631 
L 134 3200 
L 669 3200 
L 669 3941 
L 1394 4147 
L 1394 3200 
L 2159 3200 
L 2159 2631 
L 1394 2631 
L 1394 1031 
Q 1394 747 1497 625 
Q 1600 503 1841 503 
Q 2025 503 2159 609 
L 2159 34 
z
" transform="scale(0.015625)"/>
     <path id="SegoeUI-Semibold-65" d="M 3181 1403 
L 1000 1403 
Q 1013 959 1273 718 
Q 1534 478 1991 478 
Q 2503 478 2931 784 
L 2931 200 
Q 2494 -75 1775 -75 
Q 1069 -75 667 361 
Q 266 797 266 1588 
Q 266 2334 708 2804 
Q 1150 3275 1806 3275 
Q 2463 3275 2822 2853 
Q 3181 2431 3181 1681 
L 3181 1403 
z
M 2481 1916 
Q 2478 2306 2297 2523 
Q 2116 2741 1797 2741 
Q 1484 2741 1267 2512 
Q 1050 2284 1000 1916 
L 2481 1916 
z
" transform="scale(0.015625)"/>
     <path id="SegoeUI-Semibold-72" d="M 2328 2509 
Q 2197 2613 1950 2613 
Q 1628 2613 1412 2322 
Q 1197 2031 1197 1531 
L 1197 0 
L 472 0 
L 472 3200 
L 1197 3200 
L 1197 2541 
L 1209 2541 
Q 1316 2878 1536 3067 
Q 1756 3256 2028 3256 
Q 2225 3256 2328 3197 
L 2328 2509 
z
" transform="scale(0.015625)"/>
     <path id="SegoeUI-Semibold-20" transform="scale(0.015625)"/>
     <path id="SegoeUI-Semibold-6d" d="M 5256 0 
L 4531 0 
L 4531 1744 
Q 4531 2247 4389 2472 
Q 4247 2697 3909 2697 
Q 3625 2697 3426 2412 
Q 3228 2128 3228 1731 
L 3228 0 
L 2500 0 
L 2500 1803 
Q 2500 2697 1869 2697 
Q 1575 2697 1386 2428 
Q 1197 2159 1197 1731 
L 1197 0 
L 472 0 
L 472 3200 
L 1197 3200 
L 1197 2694 
L 1209 2694 
Q 1556 3275 2219 3275 
Q 2550 3275 2798 3092 
Q 3047 2909 3138 2613 
Q 3494 3275 4200 3275 
Q 5256 3275 5256 1972 
L 5256 0 
z
" transform="scale(0.015625)"/>
     <path id="SegoeUI-Semibold-61" d="M 2928 0 
L 2225 0 
L 2225 500 
L 2213 500 
Q 1881 -75 1241 -75 
Q 769 -75 501 181 
Q 234 438 234 859 
Q 234 1766 1278 1916 
L 2228 2050 
Q 2228 2734 1578 2734 
Q 1006 2734 547 2341 
L 547 2975 
Q 1053 3275 1716 3275 
Q 2928 3275 2928 2081 
L 2928 0 
z
M 2228 1572 
L 1556 1478 
Q 1244 1438 1086 1327 
Q 928 1216 928 938 
Q 928 734 1073 604 
Q 1219 475 1463 475 
Q 1794 475 2011 708 
Q 2228 941 2228 1294 
L 2228 1572 
z
" transform="scale(0.015625)"/>
     <path id="SegoeUI-Semibold-6e" d="M 3322 0 
L 2597 0 
L 2597 1803 
Q 2597 2700 1963 2700 
Q 1631 2700 1415 2451 
Q 1200 2203 1200 1825 
L 1200 0 
L 472 0 
L 472 3200 
L 1200 3200 
L 1200 2669 
L 1213 2669 
Q 1572 3275 2250 3275 
Q 2772 3275 3047 2936 
Q 3322 2597 3322 1956 
L 3322 0 
z
" transform="scale(0.015625)"/>
     <path id="SegoeUI-Semibold-69" d="M 838 3872 
Q 659 3872 532 3987 
Q 406 4103 406 4281 
Q 406 4459 532 4578 
Q 659 4697 838 4697 
Q 1022 4697 1150 4578 
Q 1278 4459 1278 4281 
Q 1278 4113 1150 3992 
Q 1022 3872 838 3872 
z
M 1197 0 
L 472 0 
L 472 3200 
L 1197 3200 
L 1197 0 
z
" transform="scale(0.015625)"/>
     <path id="SegoeUI-Semibold-67" d="M 3384 256 
Q 3384 -1506 1613 -1506 
Q 988 -1506 522 -1297 
L 522 -634 
Q 1047 -934 1519 -934 
Q 2659 -934 2659 188 
L 2659 538 
L 2647 538 
Q 2288 -75 1566 -75 
Q 981 -75 623 351 
Q 266 778 266 1497 
Q 266 2313 650 2794 
Q 1034 3275 1706 3275 
Q 2341 3275 2647 2756 
L 2659 2756 
L 2659 3200 
L 3384 3200 
L 3384 256 
z
M 2666 1466 
L 2666 1881 
Q 2666 2219 2442 2458 
Q 2219 2697 1884 2697 
Q 1472 2697 1239 2392 
Q 1006 2088 1006 1541 
Q 1006 1069 1229 786 
Q 1453 503 1822 503 
Q 2197 503 2431 773 
Q 2666 1044 2666 1466 
z
" transform="scale(0.015625)"/>
     <path id="SegoeUI-Semibold-7a" d="M 2834 2897 
L 1106 566 
L 2828 566 
L 2828 0 
L 91 0 
L 91 272 
L 1856 2634 
L 259 2634 
L 259 3200 
L 2834 3200 
L 2834 2897 
z
" transform="scale(0.015625)"/>
     <path id="SegoeUI-Semibold-6f" d="M 1891 -75 
Q 1150 -75 708 373 
Q 266 822 266 1563 
Q 266 2369 727 2822 
Q 1188 3275 1969 3275 
Q 2719 3275 3137 2834 
Q 3556 2394 3556 1613 
Q 3556 847 3104 386 
Q 2653 -75 1891 -75 
z
M 1925 2697 
Q 1500 2697 1253 2400 
Q 1006 2103 1006 1581 
Q 1006 1078 1256 789 
Q 1506 500 1925 500 
Q 2353 500 2583 784 
Q 2813 1069 2813 1594 
Q 2813 2122 2583 2409 
Q 2353 2697 1925 2697 
z
" transform="scale(0.015625)"/>
     <path id="SegoeUI-Semibold-68" d="M 3316 0 
L 2591 0 
L 2591 1750 
Q 2591 2700 1956 2700 
Q 1638 2700 1419 2425 
Q 1200 2150 1200 1722 
L 1200 0 
L 472 0 
L 472 4738 
L 1200 4738 
L 1200 2669 
L 1213 2669 
Q 1575 3275 2250 3275 
Q 3316 3275 3316 1972 
L 3316 0 
z
" transform="scale(0.015625)"/>
     <path id="SegoeUI-Semibold-64" d="M 3381 0 
L 2656 0 
L 2656 544 
L 2644 544 
Q 2294 -75 1566 -75 
Q 975 -75 620 354 
Q 266 784 266 1525 
Q 266 2319 658 2797 
Q 1050 3275 1703 3275 
Q 2350 3275 2644 2756 
L 2656 2756 
L 2656 4738 
L 3381 4738 
L 3381 0 
z
M 2666 1463 
L 2666 1881 
Q 2666 2222 2444 2459 
Q 2222 2697 1878 2697 
Q 1472 2697 1239 2394 
Q 1006 2091 1006 1553 
Q 1006 1066 1229 783 
Q 1453 500 1831 500 
Q 2203 500 2434 773 
Q 2666 1047 2666 1463 
z
" transform="scale(0.015625)"/>
     <path id="SegoeUI-Semibold-2d" d="M 2156 1481 
L 450 1481 
L 450 2016 
L 2156 2016 
L 2156 1481 
z
" transform="scale(0.015625)"/>
    </defs>
    <use xlink:href="#SegoeUI-Semibold-43"/>
    <use xlink:href="#SegoeUI-Semibold-6c" transform="translate(62.109375 0)"/>
    <use xlink:href="#SegoeUI-Semibold-75" transform="translate(88.232422 0)"/>
    <use xlink:href="#SegoeUI-Semibold-73" transform="translate(146.582031 0)"/>
    <use xlink:href="#SegoeUI-Semibold-74" transform="translate(189.697266 0)"/>
    <use xlink:href="#SegoeUI-Semibold-65" transform="translate(225.205078 0)"/>
    <use xlink:href="#SegoeUI-Semibold-72" transform="translate(278.330078 0)"/>
    <use xlink:href="#SegoeUI-Semibold-20" transform="translate(315.341797 0)"/>
    <use xlink:href="#SegoeUI-Semibold-6d" transform="translate(342.832031 0)"/>
    <use xlink:href="#SegoeUI-Semibold-65" transform="translate(431.40625 0)"/>
    <use xlink:href="#SegoeUI-Semibold-61" transform="translate(484.53125 0)"/>
    <use xlink:href="#SegoeUI-Semibold-6e" transform="translate(536.728516 0)"/>
    <use xlink:href="#SegoeUI-Semibold-69" transform="translate(595.078125 0)"/>
    <use xlink:href="#SegoeUI-Semibold-6e" transform="translate(621.201172 0)"/>
    <use xlink:href="#SegoeUI-Semibold-67" transform="translate(679.550781 0)"/>
    <use xlink:href="#SegoeUI-Semibold-20" transform="translate(739.804688 0)"/>
    <use xlink:href="#SegoeUI-Semibold-67" transform="translate(767.294922 0)"/>
    <use xlink:href="#SegoeUI-Semibold-65" transform="translate(827.548828 0)"/>
    <use xlink:href="#SegoeUI-Semibold-6e" transform="translate(880.673828 0)"/>
    <use xlink:href="#SegoeUI-Semibold-65" transform="translate(939.023438 0)"/>
    <use xlink:href="#SegoeUI-Semibold-72" transform="translate(992.148438 0)"/>
    <use xlink:href="#SegoeUI-Semibold-61" transform="translate(1029.160156 0)"/>
    <use xlink:href="#SegoeUI-Semibold-6c" transform="translate(1081.357422 0)"/>
    <use xlink:href="#SegoeUI-Semibold-69" transform="translate(1107.480469 0)"/>
    <use xlink:href="#SegoeUI-Semibold-7a" transform="translate(1133.603516 0)"/>
    <use xlink:href="#SegoeUI-Semibold-65" transform="translate(1180.039062 0)"/>
    <use xlink:href="#SegoeUI-Semibold-73" transform="translate(1233.164062 0)"/>
    <use xlink:href="#SegoeUI-Semibold-20" transform="translate(1276.279297 0)"/>
    <use xlink:href="#SegoeUI-Semibold-74" transform="translate(1303.769531 0)"/>
    <use xlink:href="#SegoeUI-Semibold-6f" transform="translate(1339.277344 0)"/>
    <use xlink:href="#SegoeUI-Semibold-20" transform="translate(1398.994141 0)"/>
    <use xlink:href="#SegoeUI-Semibold-68" transform="translate(1426.484375 0)"/>
    <use xlink:href="#SegoeUI-Semibold-65" transform="translate(1484.6875 0)"/>
    <use xlink:href="#SegoeUI-Semibold-6c" transform="translate(1537.8125 0)"/>
    <use xlink:href="#SegoeUI-Semibold-64" transform="translate(1563.935547 0)"/>
    <use xlink:href="#SegoeUI-Semibold-2d" transform="translate(1624.189453 0)"/>
    <use xlink:href="#SegoeUI-Semibold-6f" transform="translate(1664.375 0)"/>
    <use xlink:href="#SegoeUI-Semibold-75" transform="translate(1724.091797 0)"/>
    <use xlink:href="#SegoeUI-Semibold-74" transform="translate(1782.441406 0)"/>
    <use xlink:href="#SegoeUI-Semibold-20" transform="translate(1818.574219 0)"/>
    <use xlink:href="#SegoeUI-Semibold-73" transform="translate(1846.064453 0)"/>
    <use xlink:href="#SegoeUI-Semibold-65" transform="translate(1889.179688 0)"/>
    <use xlink:href="#SegoeUI-Semibold-73" transform="translate(1942.304688 0)"/>
    <use xlink:href="#SegoeUI-Semibold-73" transform="translate(1985.419922 0)"/>
    <use xlink:href="#SegoeUI-Semibold-69" transform="translate(2028.535156 0)"/>
    <use xlink:href="#SegoeUI-Semibold-6f" transform="translate(2054.658203 0)"/>
    <use xlink:href="#SegoeUI-Semibold-6e" transform="translate(2114.375 0)"/>
    <use xlink:href="#SegoeUI-Semibold-73" transform="translate(2172.724609 0)"/>
   </g>
  </g>
  <g id="text_14">
   <!-- Train/test silhouette is nearly identical: 0.319 vs 0.319. -->
   <g style="fill: #6f768a" transform="translate(61.52125 33.662812) scale(0.09 -0.09)">
    <defs>
     <path id="SegoeUI-2f" d="M 2541 4481 
L 391 -744 
L -88 -744 
L 2056 4481 
L 2541 4481 
z
" transform="scale(0.015625)"/>
     <path id="SegoeUI-79" d="M 3066 3200 
L 1594 -513 
Q 1200 -1506 488 -1506 
Q 288 -1506 153 -1466 
L 153 -1006 
Q 319 -1063 456 -1063 
Q 844 -1063 1038 -600 
L 1294 6 
L 44 3200 
L 613 3200 
L 1478 738 
Q 1494 691 1544 494 
L 1563 494 
Q 1578 569 1625 731 
L 2534 3200 
L 3066 3200 
z
" transform="scale(0.015625)"/>
     <path id="SegoeUI-3a" d="M 697 2575 
Q 553 2575 451 2678 
Q 350 2781 350 2925 
Q 350 3069 451 3169 
Q 553 3269 697 3269 
Q 844 3269 947 3169 
Q 1050 3069 1050 2925 
Q 1050 2781 947 2678 
Q 844 2575 697 2575 
z
M 697 -69 
Q 553 -69 451 34 
Q 350 138 350 281 
Q 350 425 451 529 
Q 553 634 697 634 
Q 844 634 947 529 
Q 1050 425 1050 281 
Q 1050 138 947 34 
Q 844 -69 697 -69 
z
" transform="scale(0.015625)"/>
     <path id="SegoeUI-33" d="M 2978 1269 
Q 2978 966 2864 717 
Q 2750 469 2542 292 
Q 2334 116 2043 19 
Q 1753 -78 1403 -78 
Q 763 -78 384 166 
L 384 716 
Q 838 359 1422 359 
Q 1656 359 1845 418 
Q 2034 478 2170 590 
Q 2306 703 2379 862 
Q 2453 1022 2453 1222 
Q 2453 2100 1203 2100 
L 831 2100 
L 831 2534 
L 1184 2534 
Q 2291 2534 2291 3359 
Q 2291 4122 1447 4122 
Q 972 4122 556 3803 
L 556 4300 
Q 984 4556 1575 4556 
Q 1856 4556 2084 4478 
Q 2313 4400 2475 4259 
Q 2638 4119 2727 3922 
Q 2816 3725 2816 3488 
Q 2816 2603 1922 2350 
L 1922 2338 
Q 2150 2313 2344 2227 
Q 2538 2141 2678 2003 
Q 2819 1866 2898 1680 
Q 2978 1494 2978 1269 
z
" transform="scale(0.015625)"/>
     <path id="SegoeUI-39" d="M 3138 2509 
Q 3138 1894 3016 1414 
Q 2894 934 2659 601 
Q 2425 269 2087 95 
Q 1750 -78 1319 -78 
Q 875 -78 538 78 
L 538 569 
Q 909 359 1331 359 
Q 1634 359 1873 484 
Q 2113 609 2278 848 
Q 2444 1088 2531 1438 
Q 2619 1788 2619 2241 
L 2606 2241 
Q 2319 1663 1606 1663 
Q 1319 1663 1078 1764 
Q 838 1866 663 2052 
Q 488 2238 391 2494 
Q 294 2750 294 3059 
Q 294 3391 401 3666 
Q 509 3941 701 4139 
Q 894 4338 1158 4447 
Q 1422 4556 1734 4556 
Q 2072 4556 2333 4420 
Q 2594 4284 2772 4023 
Q 2950 3763 3044 3381 
Q 3138 3000 3138 2509 
z
M 2584 2969 
Q 2584 3228 2517 3440 
Q 2450 3653 2331 3804 
Q 2213 3956 2048 4039 
Q 1884 4122 1691 4122 
Q 1506 4122 1347 4048 
Q 1188 3975 1070 3842 
Q 953 3709 886 3526 
Q 819 3344 819 3128 
Q 819 2891 883 2703 
Q 947 2516 1065 2386 
Q 1184 2256 1351 2187 
Q 1519 2119 1722 2119 
Q 1900 2119 2058 2186 
Q 2216 2253 2333 2367 
Q 2450 2481 2517 2636 
Q 2584 2791 2584 2969 
z
" transform="scale(0.015625)"/>
     <path id="SegoeUI-76" d="M 3034 3200 
L 1759 0 
L 1256 0 
L 44 3200 
L 606 3200 
L 1419 875 
Q 1509 619 1531 428 
L 1544 428 
Q 1575 669 1644 863 
L 2494 3200 
L 3034 3200 
z
" transform="scale(0.015625)"/>
    </defs>
    <use xlink:href="#SegoeUI-54"/>
    <use xlink:href="#SegoeUI-72" transform="translate(43.642578 0)"/>
    <use xlink:href="#SegoeUI-61" transform="translate(78.408203 0)"/>
    <use xlink:href="#SegoeUI-69" transform="translate(129.287109 0)"/>
    <use xlink:href="#SegoeUI-6e" transform="translate(153.505859 0)"/>
    <use xlink:href="#SegoeUI-2f" transform="translate(210.097656 0)"/>
    <use xlink:href="#SegoeUI-74" transform="translate(249.0625 0)"/>
    <use xlink:href="#SegoeUI-65" transform="translate(282.199219 0)"/>
    <use xlink:href="#SegoeUI-73" transform="translate(334.494141 0)"/>
    <use xlink:href="#SegoeUI-74" transform="translate(376.925781 0)"/>
    <use xlink:href="#SegoeUI-20" transform="translate(410.8125 0)"/>
    <use xlink:href="#SegoeUI-73" transform="translate(438.205078 0)"/>
    <use xlink:href="#SegoeUI-69" transform="translate(480.636719 0)"/>
    <use xlink:href="#SegoeUI-6c" transform="translate(504.855469 0)"/>
    <use xlink:href="#SegoeUI-68" transform="translate(529.074219 0)"/>
    <use xlink:href="#SegoeUI-6f" transform="translate(585.666016 0)"/>
    <use xlink:href="#SegoeUI-75" transform="translate(644.259766 0)"/>
    <use xlink:href="#SegoeUI-65" transform="translate(700.851562 0)"/>
    <use xlink:href="#SegoeUI-74" transform="translate(753.146484 0)"/>
    <use xlink:href="#SegoeUI-74" transform="translate(787.033203 0)"/>
    <use xlink:href="#SegoeUI-65" transform="translate(820.169922 0)"/>
    <use xlink:href="#SegoeUI-20" transform="translate(872.464844 0)"/>
    <use xlink:href="#SegoeUI-69" transform="translate(899.857422 0)"/>
    <use xlink:href="#SegoeUI-73" transform="translate(924.076172 0)"/>
    <use xlink:href="#SegoeUI-20" transform="translate(966.507812 0)"/>
    <use xlink:href="#SegoeUI-6e" transform="translate(993.900391 0)"/>
    <use xlink:href="#SegoeUI-65" transform="translate(1050.492188 0)"/>
    <use xlink:href="#SegoeUI-61" transform="translate(1102.787109 0)"/>
    <use xlink:href="#SegoeUI-72" transform="translate(1153.666016 0)"/>
    <use xlink:href="#SegoeUI-6c" transform="translate(1188.431641 0)"/>
    <use xlink:href="#SegoeUI-79" transform="translate(1212.650391 0)"/>
    <use xlink:href="#SegoeUI-20" transform="translate(1261.039062 0)"/>
    <use xlink:href="#SegoeUI-69" transform="translate(1288.431641 0)"/>
    <use xlink:href="#SegoeUI-64" transform="translate(1312.650391 0)"/>
    <use xlink:href="#SegoeUI-65" transform="translate(1371.537109 0)"/>
    <use xlink:href="#SegoeUI-6e" transform="translate(1423.832031 0)"/>
    <use xlink:href="#SegoeUI-74" transform="translate(1480.423828 0)"/>
    <use xlink:href="#SegoeUI-69" transform="translate(1514.310547 0)"/>
    <use xlink:href="#SegoeUI-63" transform="translate(1538.529297 0)"/>
    <use xlink:href="#SegoeUI-61" transform="translate(1584.720703 0)"/>
    <use xlink:href="#SegoeUI-6c" transform="translate(1635.599609 0)"/>
    <use xlink:href="#SegoeUI-3a" transform="translate(1659.818359 0)"/>
    <use xlink:href="#SegoeUI-20" transform="translate(1681.498047 0)"/>
    <use xlink:href="#SegoeUI-30" transform="translate(1708.890625 0)"/>
    <use xlink:href="#SegoeUI-2e" transform="translate(1762.796875 0)"/>
    <use xlink:href="#SegoeUI-33" transform="translate(1784.476562 0)"/>
    <use xlink:href="#SegoeUI-31" transform="translate(1838.382812 0)"/>
    <use xlink:href="#SegoeUI-39" transform="translate(1892.289062 0)"/>
    <use xlink:href="#SegoeUI-20" transform="translate(1946.195312 0)"/>
    <use xlink:href="#SegoeUI-76" transform="translate(1973.587891 0)"/>
    <use xlink:href="#SegoeUI-73" transform="translate(2021.488281 0)"/>
    <use xlink:href="#SegoeUI-20" transform="translate(2063.919922 0)"/>
    <use xlink:href="#SegoeUI-30" transform="translate(2091.3125 0)"/>
    <use xlink:href="#SegoeUI-2e" transform="translate(2145.21875 0)"/>
    <use xlink:href="#SegoeUI-33" transform="translate(2166.898438 0)"/>
    <use xlink:href="#SegoeUI-31" transform="translate(2220.804688 0)"/>
    <use xlink:href="#SegoeUI-39" transform="translate(2274.710938 0)"/>
    <use xlink:href="#SegoeUI-2e" transform="translate(2328.617188 0)"/>
   </g>
  </g>
 </g>
 <defs>
  <clipPath id="p7506a4dc8b">
   <rect x="61.52125" y="52.2" width="468.72" height="270"/>
  </clipPath>
 </defs>
</svg>
