<?xml version="1.0" encoding="utf-8" standalone="no"?>
<!DOCTYPE svg PUBLIC "-//W3C//DTD SVG 1.1//EN"
  "http://www.w3.org/Graphics/SVG/1.1/DTD/svg11.dtd">
<svg xmlns:xlink="http://www.w3.org/1999/xlink" width="619.143281pt" height="390.608437pt" viewBox="0 0 619.143281 390.608437" xmlns="http://www.w3.org/2000/svg" version="1.1">
 <metadata>
  <rdf:RDF xmlns:dc="http://purl.org/dc/elements/1.1/" xmlns:cc="http://creativecommons.org/ns#" xmlns:rdf="http://www.w3.org/1999/02/22-rdf-syntax-ns#">
   <cc:Work>
    <dc:type rdf:resource="http://purl.org/dc/dcmitype/StillImage"/>
    <dc:date>2026-06-17T11:45:47.276962</dc:date>
    <dc:format>image/svg+xml</dc:format>
    <dc:creator>
     <cc:Agent>
      <dc:title>Matplotlib v3.10.9, https://matplotlib.org/</dc:title>
     </cc:Agent>
    </dc:creator>
   </cc:Work>
  </rdf:RDF>
 </metadata>
 <defs>
  <style type="text/css">*{stroke-linejoin: round; stroke-linecap: butt}</style>
 </defs>
 <g id="figure_1">
  <g id="patch_1">
   <path d="M 0 390.608437 
L 619.143281 390.608437 
L 619.143281 0 
L 0 0 
z
" style="fill: #fcfcfd"/>
  </g>
  <g id="axes_1">
   <g id="patch_2">
    <path d="M 137.643281 347.4 
L 611.943281 347.4 
L 611.943281 55.8 
L 137.643281 55.8 
z
" style="fill: #ffffff"/>
   </g>
   <g id="matplotlib.axis_1">
    <g id="xtick_1">
     <g id="line2d_1">
      <path d="M 160.080934 347.4 
L 160.080934 55.8 
" clip-path="url(#pdb43776ee2)" style="fill: none; stroke: #e6e8f0; stroke-width: 0.8; stroke-linecap: round"/>
     </g>
     <g id="text_1">
      <!-- 0.000 -->
      <g style="fill: #262626" transform="translate(147.028747 365.043437) scale(0.11 -0.11)">
       <defs>
        <path id="SegoeUI-30" d="M 3188 2259 
Q 3188 1697 3086 1262 
Q 2984 828 2792 529 
Q 2600 231 2320 76 
Q 2041 -78 1684 -78 
Q 1347 -78 1083 70 
Q 819 219 637 503 
Q 456 788 362 1202 
Q 269 1616 269 2150 
Q 269 2738 367 3188 
Q 466 3638 656 3942 
Q 847 4247 1130 4401 
Q 1413 4556 1778 4556 
Q 3188 4556 3188 2259 
z
M 2663 2209 
Q 2663 4122 1753 4122 
Q 794 4122 794 2175 
Q 794 359 1734 359 
Q 2663 359 2663 2209 
z
" transform="scale(0.015625)"/>
        <path id="SegoeUI-2e" d="M 697 -69 
Q 553 -69 451 34 
Q 350 138 350 281 
Q 350 425 451 529 
Q 553 634 697 634 
Q 844 634 947 529 
Q 1050 425 1050 281 
Q 1050 138 947 34 
Q 844 -69 697 -69 
z
" transform="scale(0.015625)"/>
       </defs>
       <use xlink:href="#SegoeUI-30"/>
       <use xlink:href="#SegoeUI-2e" transform="translate(53.90625 0)"/>
       <use xlink:href="#SegoeUI-30" transform="translate(75.585938 0)"/>
       <use xlink:href="#SegoeUI-30" transform="translate(129.492188 0)"/>
       <use xlink:href="#SegoeUI-30" transform="translate(183.398438 0)"/>
      </g>
     </g>
    </g>
    <g id="xtick_2">
     <g id="line2d_2">
      <path d="M 241.060133 347.4 
L 241.060133 55.8 
" clip-path="url(#pdb43776ee2)" style="fill: none; stroke: #e6e8f0; stroke-width: 0.8; stroke-linecap: round"/>
     </g>
     <g id="text_2">
      <!-- 0.005 -->
      <g style="fill: #262626" transform="translate(228.007946 365.043437) scale(0.11 -0.11)">
       <defs>
        <path id="SegoeUI-35" d="M 3028 1369 
Q 3028 1041 2915 775 
Q 2803 509 2595 318 
Q 2388 128 2094 25 
Q 1800 -78 1441 -78 
Q 816 -78 513 109 
L 513 653 
Q 969 359 1447 359 
Q 1691 359 1886 431 
Q 2081 503 2218 631 
Q 2356 759 2429 940 
Q 2503 1122 2503 1338 
Q 2503 1775 2209 2023 
Q 1916 2272 1356 2272 
Q 1266 2272 1166 2269 
Q 1066 2266 966 2261 
Q 866 2256 770 2250 
Q 675 2244 597 2234 
L 750 4481 
L 2822 4481 
L 2822 4019 
L 1194 4019 
L 1103 2703 
Q 1203 2709 1315 2714 
Q 1428 2719 1516 2719 
Q 1872 2719 2153 2625 
Q 2434 2531 2629 2357 
Q 2825 2184 2926 1932 
Q 3028 1681 3028 1369 
z
" transform="scale(0.015625)"/>
       </defs>
       <use xlink:href="#SegoeUI-30"/>
       <use xlink:href="#SegoeUI-2e" transform="translate(53.90625 0)"/>
       <use xlink:href="#SegoeUI-30" transform="translate(75.585938 0)"/>
       <use xlink:href="#SegoeUI-30" transform="translate(129.492188 0)"/>
       <use xlink:href="#SegoeUI-35" transform="translate(183.398438 0)"/>
      </g>
     </g>
    </g>
    <g id="xtick_3">
     <g id="line2d_3">
      <path d="M 322.039332 347.4 
L 322.039332 55.8 
" clip-path="url(#pdb43776ee2)" style="fill: none; stroke: #e6e8f0; stroke-width: 0.8; stroke-linecap: round"/>
     </g>
     <g id="text_3">
      <!-- 0.010 -->
      <g style="fill: #262626" transform="translate(308.987145 365.043437) scale(0.11 -0.11)">
       <defs>
        <path id="SegoeUI-31" d="M 2263 0 
L 1750 0 
L 1750 3872 
Q 1691 3813 1577 3736 
Q 1463 3659 1320 3584 
Q 1178 3509 1020 3443 
Q 863 3378 713 3341 
L 713 3859 
Q 881 3906 1070 3986 
Q 1259 4066 1442 4164 
Q 1625 4263 1787 4370 
Q 1950 4478 2069 4581 
L 2263 4581 
L 2263 0 
z
" transform="scale(0.015625)"/>
       </defs>
       <use xlink:href="#SegoeUI-30"/>
       <use xlink:href="#SegoeUI-2e" transform="translate(53.90625 0)"/>
       <use xlink:href="#SegoeUI-30" transform="translate(75.585938 0)"/>
       <use xlink:href="#SegoeUI-31" transform="translate(129.492188 0)"/>
       <use xlink:href="#SegoeUI-30" transform="translate(183.398438 0)"/>
      </g>
     </g>
    </g>
    <g id="xtick_4">
     <g id="line2d_4">
      <path d="M 403.018531 347.4 
L 403.018531 55.8 
" clip-path="url(#pdb43776ee2)" style="fill: none; stroke: #e6e8f0; stroke-width: 0.8; stroke-linecap: round"/>
     </g>
     <g id="text_4">
      <!-- 0.015 -->
      <g style="fill: #262626" transform="translate(389.966343 365.043437) scale(0.11 -0.11)">
       <use xlink:href="#SegoeUI-30"/>
       <use xlink:href="#SegoeUI-2e" transform="translate(53.90625 0)"/>
       <use xlink:href="#SegoeUI-30" transform="translate(75.585938 0)"/>
       <use xlink:href="#SegoeUI-31" transform="translate(129.492188 0)"/>
       <use xlink:href="#SegoeUI-35" transform="translate(183.398438 0)"/>
      </g>
     </g>
    </g>
    <g id="xtick_5">
     <g id="line2d_5">
      <path d="M 483.99773 347.4 
L 483.99773 55.8 
" clip-path="url(#pdb43776ee2)" style="fill: none; stroke: #e6e8f0; stroke-width: 0.8; stroke-linecap: round"/>
     </g>
     <g id="text_5">
      <!-- 0.020 -->
      <g style="fill: #262626" transform="translate(470.945542 365.043437) scale(0.11 -0.11)">
       <defs>
        <path id="SegoeUI-32" d="M 2413 3306 
Q 2413 3513 2348 3666 
Q 2284 3819 2173 3920 
Q 2063 4022 1913 4072 
Q 1763 4122 1588 4122 
Q 1438 4122 1294 4081 
Q 1150 4041 1014 3969 
Q 878 3897 751 3797 
Q 625 3697 516 3575 
L 516 4125 
Q 731 4334 998 4445 
Q 1266 4556 1650 4556 
Q 1925 4556 2159 4476 
Q 2394 4397 2566 4244 
Q 2738 4091 2836 3866 
Q 2934 3641 2934 3350 
Q 2934 3084 2873 2868 
Q 2813 2653 2689 2462 
Q 2566 2272 2378 2097 
Q 2191 1922 1938 1741 
Q 1622 1516 1417 1356 
Q 1213 1197 1092 1058 
Q 972 919 923 780 
Q 875 641 875 459 
L 3106 459 
L 3106 0 
L 341 0 
L 341 222 
Q 341 509 403 728 
Q 466 947 609 1144 
Q 753 1341 986 1537 
Q 1219 1734 1556 1981 
Q 1800 2156 1964 2315 
Q 2128 2475 2228 2634 
Q 2328 2794 2370 2958 
Q 2413 3122 2413 3306 
z
" transform="scale(0.015625)"/>
       </defs>
       <use xlink:href="#SegoeUI-30"/>
       <use xlink:href="#SegoeUI-2e" transform="translate(53.90625 0)"/>
       <use xlink:href="#SegoeUI-30" transform="translate(75.585938 0)"/>
       <use xlink:href="#SegoeUI-32" transform="translate(129.492188 0)"/>
       <use xlink:href="#SegoeUI-30" transform="translate(183.398438 0)"/>
      </g>
     </g>
    </g>
    <g id="xtick_6">
     <g id="line2d_6">
      <path d="M 564.976929 347.4 
L 564.976929 55.8 
" clip-path="url(#pdb43776ee2)" style="fill: none; stroke: #e6e8f0; stroke-width: 0.8; stroke-linecap: round"/>
     </g>
     <g id="text_6">
      <!-- 0.025 -->
      <g style="fill: #262626" transform="translate(551.924741 365.043437) scale(0.11 -0.11)">
       <use xlink:href="#SegoeUI-30"/>
       <use xlink:href="#SegoeUI-2e" transform="translate(53.90625 0)"/>
       <use xlink:href="#SegoeUI-30" transform="translate(75.585938 0)"/>
       <use xlink:href="#SegoeUI-32" transform="translate(129.492188 0)"/>
       <use xlink:href="#SegoeUI-35" transform="translate(183.398438 0)"/>
      </g>
     </g>
    </g>
    <g id="text_7">
     <!-- ROC-AUC decrease after shuffling -->
     <g style="fill: #1f2430" transform="translate(285.575156 380.584687) scale(0.12 -0.12)">
      <defs>
       <path id="SegoeUI-52" d="M 3800 0 
L 3175 0 
L 2425 1256 
Q 2322 1431 2225 1554 
Q 2128 1678 2026 1756 
Q 1925 1834 1808 1870 
Q 1691 1906 1544 1906 
L 1113 1906 
L 1113 0 
L 588 0 
L 588 4481 
L 1925 4481 
Q 2219 4481 2467 4407 
Q 2716 4334 2898 4184 
Q 3081 4034 3184 3811 
Q 3288 3588 3288 3288 
Q 3288 3053 3217 2858 
Q 3147 2663 3017 2509 
Q 2888 2356 2705 2248 
Q 2522 2141 2294 2081 
L 2294 2069 
Q 2406 2019 2489 1955 
Q 2572 1891 2647 1803 
Q 2722 1716 2795 1605 
Q 2869 1494 2959 1347 
L 3800 0 
z
M 1113 4006 
L 1113 2381 
L 1825 2381 
Q 2022 2381 2189 2440 
Q 2356 2500 2478 2611 
Q 2600 2722 2669 2883 
Q 2738 3044 2738 3244 
Q 2738 3603 2505 3804 
Q 2272 4006 1831 4006 
L 1113 4006 
z
" transform="scale(0.015625)"/>
       <path id="SegoeUI-4f" d="M 2394 -75 
Q 1441 -75 867 553 
Q 294 1181 294 2188 
Q 294 3269 878 3912 
Q 1463 4556 2469 4556 
Q 3397 4556 3964 3931 
Q 4531 3306 4531 2297 
Q 4531 1200 3950 562 
Q 3369 -75 2394 -75 
z
M 2431 4081 
Q 1725 4081 1284 3572 
Q 844 3063 844 2234 
Q 844 1406 1273 901 
Q 1703 397 2394 397 
Q 3131 397 3556 878 
Q 3981 1359 3981 2225 
Q 3981 3113 3568 3597 
Q 3156 4081 2431 4081 
z
" transform="scale(0.015625)"/>
       <path id="SegoeUI-43" d="M 3638 188 
Q 3141 -75 2400 -75 
Q 1444 -75 869 540 
Q 294 1156 294 2156 
Q 294 3231 941 3893 
Q 1588 4556 2581 4556 
Q 3219 4556 3638 4372 
L 3638 3813 
Q 3156 4081 2575 4081 
Q 1803 4081 1323 3565 
Q 844 3050 844 2188 
Q 844 1369 1292 883 
Q 1741 397 2469 397 
Q 3144 397 3638 697 
L 3638 188 
z
" transform="scale(0.015625)"/>
       <path id="SegoeUI-2d" d="M 2156 1581 
L 450 1581 
L 450 1984 
L 2156 1984 
L 2156 1581 
z
" transform="scale(0.015625)"/>
       <path id="SegoeUI-41" d="M 4056 0 
L 3475 0 
L 3000 1256 
L 1100 1256 
L 653 0 
L 69 0 
L 1788 4481 
L 2331 4481 
L 4056 0 
z
M 2828 1728 
L 2125 3638 
Q 2091 3731 2056 3938 
L 2044 3938 
Q 2013 3747 1972 3638 
L 1275 1728 
L 2828 1728 
z
" transform="scale(0.015625)"/>
       <path id="SegoeUI-55" d="M 3866 1813 
Q 3866 -75 2163 -75 
Q 531 -75 531 1741 
L 531 4481 
L 1056 4481 
L 1056 1775 
Q 1056 397 2219 397 
Q 3341 397 3341 1728 
L 3341 4481 
L 3866 4481 
L 3866 1813 
z
" transform="scale(0.015625)"/>
       <path id="SegoeUI-20" transform="scale(0.015625)"/>
       <path id="SegoeUI-64" d="M 3250 0 
L 2738 0 
L 2738 544 
L 2725 544 
Q 2369 -75 1625 -75 
Q 1022 -75 661 354 
Q 300 784 300 1525 
Q 300 2319 700 2797 
Q 1100 3275 1766 3275 
Q 2425 3275 2725 2756 
L 2738 2756 
L 2738 4738 
L 3250 4738 
L 3250 0 
z
M 2738 1447 
L 2738 1919 
Q 2738 2306 2481 2575 
Q 2225 2844 1831 2844 
Q 1363 2844 1094 2500 
Q 825 2156 825 1550 
Q 825 997 1083 676 
Q 1341 356 1775 356 
Q 2203 356 2470 665 
Q 2738 975 2738 1447 
z
" transform="scale(0.015625)"/>
       <path id="SegoeUI-65" d="M 3091 1472 
L 831 1472 
Q 844 938 1119 647 
Q 1394 356 1875 356 
Q 2416 356 2869 713 
L 2869 231 
Q 2447 -75 1753 -75 
Q 1075 -75 687 361 
Q 300 797 300 1588 
Q 300 2334 723 2804 
Q 1147 3275 1775 3275 
Q 2403 3275 2747 2869 
Q 3091 2463 3091 1741 
L 3091 1472 
z
M 2566 1906 
Q 2563 2350 2352 2597 
Q 2141 2844 1766 2844 
Q 1403 2844 1150 2584 
Q 897 2325 838 1906 
L 2566 1906 
z
" transform="scale(0.015625)"/>
       <path id="SegoeUI-63" d="M 2700 147 
Q 2331 -75 1825 -75 
Q 1141 -75 720 370 
Q 300 816 300 1525 
Q 300 2316 753 2795 
Q 1206 3275 1963 3275 
Q 2384 3275 2706 3119 
L 2706 2594 
Q 2350 2844 1944 2844 
Q 1453 2844 1139 2492 
Q 825 2141 825 1569 
Q 825 1006 1120 681 
Q 1416 356 1913 356 
Q 2331 356 2700 634 
L 2700 147 
z
" transform="scale(0.015625)"/>
       <path id="SegoeUI-72" d="M 2188 2681 
Q 2053 2784 1800 2784 
Q 1472 2784 1251 2475 
Q 1031 2166 1031 1631 
L 1031 0 
L 519 0 
L 519 3200 
L 1031 3200 
L 1031 2541 
L 1044 2541 
Q 1153 2878 1378 3067 
Q 1603 3256 1881 3256 
Q 2081 3256 2188 3213 
L 2188 2681 
z
" transform="scale(0.015625)"/>
       <path id="SegoeUI-61" d="M 2809 0 
L 2297 0 
L 2297 500 
L 2284 500 
Q 1950 -75 1300 -75 
Q 822 -75 551 178 
Q 281 431 281 850 
Q 281 1747 1338 1894 
L 2297 2028 
Q 2297 2844 1638 2844 
Q 1059 2844 594 2450 
L 594 2975 
Q 1066 3275 1681 3275 
Q 2809 3275 2809 2081 
L 2809 0 
z
M 2297 1619 
L 1525 1513 
Q 1169 1463 987 1336 
Q 806 1209 806 888 
Q 806 653 973 504 
Q 1141 356 1419 356 
Q 1800 356 2048 623 
Q 2297 891 2297 1300 
L 2297 1619 
z
" transform="scale(0.015625)"/>
       <path id="SegoeUI-73" d="M 325 116 
L 325 666 
Q 744 356 1247 356 
Q 1922 356 1922 806 
Q 1922 934 1864 1023 
Q 1806 1113 1707 1181 
Q 1609 1250 1476 1304 
Q 1344 1359 1191 1419 
Q 978 1503 817 1589 
Q 656 1675 548 1783 
Q 441 1891 386 2028 
Q 331 2166 331 2350 
Q 331 2575 434 2748 
Q 538 2922 709 3039 
Q 881 3156 1101 3215 
Q 1322 3275 1556 3275 
Q 1972 3275 2300 3131 
L 2300 2613 
Q 1947 2844 1488 2844 
Q 1344 2844 1228 2811 
Q 1113 2778 1030 2718 
Q 947 2659 901 2576 
Q 856 2494 856 2394 
Q 856 2269 901 2184 
Q 947 2100 1034 2034 
Q 1122 1969 1247 1916 
Q 1372 1863 1531 1800 
Q 1744 1719 1912 1633 
Q 2081 1547 2200 1439 
Q 2319 1331 2383 1190 
Q 2447 1050 2447 856 
Q 2447 619 2342 444 
Q 2238 269 2063 153 
Q 1888 38 1659 -18 
Q 1431 -75 1181 -75 
Q 688 -75 325 116 
z
" transform="scale(0.015625)"/>
       <path id="SegoeUI-66" d="M 2100 4288 
Q 1950 4372 1759 4372 
Q 1222 4372 1222 3694 
L 1222 3200 
L 1972 3200 
L 1972 2763 
L 1222 2763 
L 1222 0 
L 713 0 
L 713 2763 
L 166 2763 
L 166 3200 
L 713 3200 
L 713 3719 
Q 713 4222 1003 4514 
Q 1294 4806 1728 4806 
Q 1963 4806 2100 4750 
L 2100 4288 
z
" transform="scale(0.015625)"/>
       <path id="SegoeUI-74" d="M 2003 31 
Q 1822 -69 1525 -69 
Q 684 -69 684 869 
L 684 2763 
L 134 2763 
L 134 3200 
L 684 3200 
L 684 3981 
L 1197 4147 
L 1197 3200 
L 2003 3200 
L 2003 2763 
L 1197 2763 
L 1197 959 
Q 1197 638 1306 500 
Q 1416 363 1669 363 
Q 1863 363 2003 469 
L 2003 31 
z
" transform="scale(0.015625)"/>
       <path id="SegoeUI-68" d="M 3175 0 
L 2663 0 
L 2663 1844 
Q 2663 2844 1919 2844 
Q 1544 2844 1287 2555 
Q 1031 2266 1031 1813 
L 1031 0 
L 519 0 
L 519 4738 
L 1031 4738 
L 1031 2669 
L 1044 2669 
Q 1413 3275 2094 3275 
Q 3175 3275 3175 1972 
L 3175 0 
z
" transform="scale(0.015625)"/>
       <path id="SegoeUI-75" d="M 3106 0 
L 2594 0 
L 2594 506 
L 2581 506 
Q 2263 -75 1594 -75 
Q 450 -75 450 1288 
L 450 3200 
L 959 3200 
L 959 1369 
Q 959 356 1734 356 
Q 2109 356 2351 632 
Q 2594 909 2594 1356 
L 2594 3200 
L 3106 3200 
L 3106 0 
z
" transform="scale(0.015625)"/>
       <path id="SegoeUI-6c" d="M 1031 0 
L 519 0 
L 519 4738 
L 1031 4738 
L 1031 0 
z
" transform="scale(0.015625)"/>
       <path id="SegoeUI-69" d="M 781 4013 
Q 644 4013 547 4106 
Q 450 4200 450 4344 
Q 450 4488 547 4583 
Q 644 4678 781 4678 
Q 922 4678 1020 4583 
Q 1119 4488 1119 4344 
Q 1119 4206 1020 4109 
Q 922 4013 781 4013 
z
M 1031 0 
L 519 0 
L 519 3200 
L 1031 3200 
L 1031 0 
z
" transform="scale(0.015625)"/>
       <path id="SegoeUI-6e" d="M 3175 0 
L 2663 0 
L 2663 1825 
Q 2663 2844 1919 2844 
Q 1534 2844 1282 2555 
Q 1031 2266 1031 1825 
L 1031 0 
L 519 0 
L 519 3200 
L 1031 3200 
L 1031 2669 
L 1044 2669 
Q 1406 3275 2094 3275 
Q 2619 3275 2897 2936 
Q 3175 2597 3175 1956 
L 3175 0 
z
" transform="scale(0.015625)"/>
       <path id="SegoeUI-67" d="M 3250 256 
Q 3250 -1506 1563 -1506 
Q 969 -1506 525 -1281 
L 525 -769 
Q 1066 -1069 1556 -1069 
Q 2738 -1069 2738 188 
L 2738 538 
L 2725 538 
Q 2359 -75 1625 -75 
Q 1028 -75 664 351 
Q 300 778 300 1497 
Q 300 2313 692 2794 
Q 1084 3275 1766 3275 
Q 2413 3275 2725 2756 
L 2738 2756 
L 2738 3200 
L 3250 3200 
L 3250 256 
z
M 2738 1447 
L 2738 1919 
Q 2738 2300 2480 2572 
Q 2222 2844 1838 2844 
Q 1363 2844 1094 2498 
Q 825 2153 825 1531 
Q 825 997 1083 676 
Q 1341 356 1766 356 
Q 2197 356 2467 662 
Q 2738 969 2738 1447 
z
" transform="scale(0.015625)"/>
      </defs>
      <use xlink:href="#SegoeUI-52"/>
      <use xlink:href="#SegoeUI-4f" transform="translate(58.814453 0)"/>
      <use xlink:href="#SegoeUI-43" transform="translate(134.205078 0)"/>
      <use xlink:href="#SegoeUI-2d" transform="translate(196.119141 0)"/>
      <use xlink:href="#SegoeUI-41" transform="translate(236.109375 0)"/>
      <use xlink:href="#SegoeUI-55" transform="translate(299.236328 0)"/>
      <use xlink:href="#SegoeUI-43" transform="translate(367.9375 0)"/>
      <use xlink:href="#SegoeUI-20" transform="translate(429.851562 0)"/>
      <use xlink:href="#SegoeUI-64" transform="translate(457.244141 0)"/>
      <use xlink:href="#SegoeUI-65" transform="translate(516.130859 0)"/>
      <use xlink:href="#SegoeUI-63" transform="translate(568.425781 0)"/>
      <use xlink:href="#SegoeUI-72" transform="translate(614.617188 0)"/>
      <use xlink:href="#SegoeUI-65" transform="translate(648.007812 0)"/>
      <use xlink:href="#SegoeUI-61" transform="translate(700.302734 0)"/>
      <use xlink:href="#SegoeUI-73" transform="translate(751.181641 0)"/>
      <use xlink:href="#SegoeUI-65" transform="translate(793.613281 0)"/>
      <use xlink:href="#SegoeUI-20" transform="translate(845.908203 0)"/>
      <use xlink:href="#SegoeUI-61" transform="translate(873.300781 0)"/>
      <use xlink:href="#SegoeUI-66" transform="translate(924.179688 0)"/>
      <use xlink:href="#SegoeUI-74" transform="translate(957.228516 0)"/>
      <use xlink:href="#SegoeUI-65" transform="translate(990.365234 0)"/>
      <use xlink:href="#SegoeUI-72" transform="translate(1042.660156 0)"/>
      <use xlink:href="#SegoeUI-20" transform="translate(1077.425781 0)"/>
      <use xlink:href="#SegoeUI-73" transform="translate(1104.818359 0)"/>
      <use xlink:href="#SegoeUI-68" transform="translate(1147.25 0)"/>
      <use xlink:href="#SegoeUI-75" transform="translate(1203.841797 0)"/>
      <use xlink:href="#SegoeUI-66" transform="translate(1260.433594 0)"/>
      <use xlink:href="#SegoeUI-66" transform="translate(1291.732422 0)"/>
      <use xlink:href="#SegoeUI-6c" transform="translate(1323.03125 0)"/>
      <use xlink:href="#SegoeUI-69" transform="translate(1347.25 0)"/>
      <use xlink:href="#SegoeUI-6e" transform="translate(1371.46875 0)"/>
      <use xlink:href="#SegoeUI-67" transform="translate(1428.060547 0)"/>
     </g>
    </g>
   </g>
   <g id="matplotlib.axis_2">
    <g id="ytick_1">
     <g id="text_8">
      <!-- Administrative -->
      <g style="fill: #262626" transform="translate(58.379219 78.096719) scale(0.11 -0.11)">
       <defs>
        <path id="SegoeUI-6d" d="M 5063 0 
L 4550 0 
L 4550 1838 
Q 4550 2369 4386 2606 
Q 4222 2844 3834 2844 
Q 3506 2844 3276 2544 
Q 3047 2244 3047 1825 
L 3047 0 
L 2534 0 
L 2534 1900 
Q 2534 2844 1806 2844 
Q 1469 2844 1250 2561 
Q 1031 2278 1031 1825 
L 1031 0 
L 519 0 
L 519 3200 
L 1031 3200 
L 1031 2694 
L 1044 2694 
Q 1384 3275 2038 3275 
Q 2366 3275 2609 3092 
Q 2853 2909 2944 2613 
Q 3300 3275 4006 3275 
Q 5063 3275 5063 1972 
L 5063 0 
z
" transform="scale(0.015625)"/>
        <path id="SegoeUI-76" d="M 3034 3200 
L 1759 0 
L 1256 0 
L 44 3200 
L 606 3200 
L 1419 875 
Q 1509 619 1531 428 
L 1544 428 
Q 1575 669 1644 863 
L 2494 3200 
L 3034 3200 
z
" transform="scale(0.015625)"/>
       </defs>
       <use xlink:href="#SegoeUI-41"/>
       <use xlink:href="#SegoeUI-64" transform="translate(64.501953 0)"/>
       <use xlink:href="#SegoeUI-6d" transform="translate(123.388672 0)"/>
       <use xlink:href="#SegoeUI-69" transform="translate(209.521484 0)"/>
       <use xlink:href="#SegoeUI-6e" transform="translate(233.740234 0)"/>
       <use xlink:href="#SegoeUI-69" transform="translate(290.332031 0)"/>
       <use xlink:href="#SegoeUI-73" transform="translate(314.550781 0)"/>
       <use xlink:href="#SegoeUI-74" transform="translate(356.982422 0)"/>
       <use xlink:href="#SegoeUI-72" transform="translate(390.869141 0)"/>
       <use xlink:href="#SegoeUI-61" transform="translate(425.634766 0)"/>
       <use xlink:href="#SegoeUI-74" transform="translate(476.513672 0)"/>
       <use xlink:href="#SegoeUI-69" transform="translate(510.400391 0)"/>
       <use xlink:href="#SegoeUI-76" transform="translate(534.619141 0)"/>
       <use xlink:href="#SegoeUI-65" transform="translate(581.894531 0)"/>
      </g>
     </g>
    </g>
    <g id="ytick_2">
     <g id="text_9">
      <!-- Administrative_Duration -->
      <g style="fill: #262626" transform="translate(11.392031 114.546719) scale(0.11 -0.11)">
       <defs>
        <path id="SegoeUI-5f" d="M 2656 -928 
L 0 -928 
L 0 -556 
L 2656 -556 
L 2656 -928 
z
" transform="scale(0.015625)"/>
        <path id="SegoeUI-44" d="M 588 0 
L 588 4481 
L 1825 4481 
Q 4194 4481 4194 2297 
Q 4194 1259 3536 629 
Q 2878 0 1775 0 
L 588 0 
z
M 1113 4006 
L 1113 475 
L 1781 475 
Q 2663 475 3153 947 
Q 3644 1419 3644 2284 
Q 3644 4006 1813 4006 
L 1113 4006 
z
" transform="scale(0.015625)"/>
        <path id="SegoeUI-6f" d="M 1856 -75 
Q 1147 -75 723 373 
Q 300 822 300 1563 
Q 300 2369 740 2822 
Q 1181 3275 1931 3275 
Q 2647 3275 3048 2834 
Q 3450 2394 3450 1613 
Q 3450 847 3017 386 
Q 2584 -75 1856 -75 
z
M 1894 2844 
Q 1400 2844 1112 2508 
Q 825 2172 825 1581 
Q 825 1013 1115 684 
Q 1406 356 1894 356 
Q 2391 356 2658 678 
Q 2925 1000 2925 1594 
Q 2925 2194 2658 2519 
Q 2391 2844 1894 2844 
z
" transform="scale(0.015625)"/>
       </defs>
       <use xlink:href="#SegoeUI-41"/>
       <use xlink:href="#SegoeUI-64" transform="translate(64.501953 0)"/>
       <use xlink:href="#SegoeUI-6d" transform="translate(123.388672 0)"/>
       <use xlink:href="#SegoeUI-69" transform="translate(209.521484 0)"/>
       <use xlink:href="#SegoeUI-6e" transform="translate(233.740234 0)"/>
       <use xlink:href="#SegoeUI-69" transform="translate(290.332031 0)"/>
       <use xlink:href="#SegoeUI-73" transform="translate(314.550781 0)"/>
       <use xlink:href="#SegoeUI-74" transform="translate(356.982422 0)"/>
       <use xlink:href="#SegoeUI-72" transform="translate(390.869141 0)"/>
       <use xlink:href="#SegoeUI-61" transform="translate(425.634766 0)"/>
       <use xlink:href="#SegoeUI-74" transform="translate(476.513672 0)"/>
       <use xlink:href="#SegoeUI-69" transform="translate(510.400391 0)"/>
       <use xlink:href="#SegoeUI-76" transform="translate(534.619141 0)"/>
       <use xlink:href="#SegoeUI-65" transform="translate(581.894531 0)"/>
       <use xlink:href="#SegoeUI-5f" transform="translate(634.189453 0)"/>
       <use xlink:href="#SegoeUI-44" transform="translate(675.693359 0)"/>
       <use xlink:href="#SegoeUI-75" transform="translate(745.810547 0)"/>
       <use xlink:href="#SegoeUI-72" transform="translate(802.402344 0)"/>
       <use xlink:href="#SegoeUI-61" transform="translate(837.167969 0)"/>
       <use xlink:href="#SegoeUI-74" transform="translate(888.046875 0)"/>
       <use xlink:href="#SegoeUI-69" transform="translate(921.933594 0)"/>
       <use xlink:href="#SegoeUI-6f" transform="translate(946.152344 0)"/>
       <use xlink:href="#SegoeUI-6e" transform="translate(1004.746094 0)"/>
      </g>
     </g>
    </g>
    <g id="ytick_3">
     <g id="text_10">
      <!-- BounceRates -->
      <g style="fill: #262626" transform="translate(65.866094 150.996719) scale(0.11 -0.11)">
       <defs>
        <path id="SegoeUI-42" d="M 588 0 
L 588 4481 
L 1863 4481 
Q 2444 4481 2784 4197 
Q 3125 3913 3125 3456 
Q 3125 3075 2919 2794 
Q 2713 2513 2350 2394 
L 2350 2381 
Q 2803 2328 3075 2039 
Q 3347 1750 3347 1288 
Q 3347 713 2934 356 
Q 2522 0 1894 0 
L 588 0 
z
M 1113 4006 
L 1113 2559 
L 1650 2559 
Q 2081 2559 2328 2767 
Q 2575 2975 2575 3353 
Q 2575 4006 1716 4006 
L 1113 4006 
z
M 1113 2088 
L 1113 475 
L 1825 475 
Q 2288 475 2542 694 
Q 2797 913 2797 1294 
Q 2797 2088 1716 2088 
L 1113 2088 
z
" transform="scale(0.015625)"/>
       </defs>
       <use xlink:href="#SegoeUI-42"/>
       <use xlink:href="#SegoeUI-6f" transform="translate(57.324219 0)"/>
       <use xlink:href="#SegoeUI-75" transform="translate(115.917969 0)"/>
       <use xlink:href="#SegoeUI-6e" transform="translate(172.509766 0)"/>
       <use xlink:href="#SegoeUI-63" transform="translate(229.101562 0)"/>
       <use xlink:href="#SegoeUI-65" transform="translate(275.292969 0)"/>
       <use xlink:href="#SegoeUI-52" transform="translate(327.587891 0)"/>
       <use xlink:href="#SegoeUI-61" transform="translate(387.402344 0)"/>
       <use xlink:href="#SegoeUI-74" transform="translate(438.28125 0)"/>
       <use xlink:href="#SegoeUI-65" transform="translate(471.417969 0)"/>
       <use xlink:href="#SegoeUI-73" transform="translate(523.712891 0)"/>
      </g>
     </g>
    </g>
    <g id="ytick_4">
     <g id="text_11">
      <!-- SpecialDay -->
      <g style="fill: #262626" transform="translate(75.44125 187.446719) scale(0.11 -0.11)">
       <defs>
        <path id="SegoeUI-53" d="M 378 181 
L 378 800 
Q 484 706 632 631 
Q 781 556 945 504 
Q 1109 453 1275 425 
Q 1441 397 1581 397 
Q 2066 397 2305 576 
Q 2544 756 2544 1094 
Q 2544 1275 2464 1409 
Q 2384 1544 2243 1655 
Q 2103 1766 1911 1867 
Q 1719 1969 1497 2081 
Q 1263 2200 1059 2322 
Q 856 2444 706 2591 
Q 556 2738 470 2923 
Q 384 3109 384 3359 
Q 384 3666 518 3892 
Q 653 4119 872 4266 
Q 1091 4413 1370 4484 
Q 1650 4556 1941 4556 
Q 2603 4556 2906 4397 
L 2906 3806 
Q 2509 4081 1888 4081 
Q 1716 4081 1544 4045 
Q 1372 4009 1237 3928 
Q 1103 3847 1018 3719 
Q 934 3591 934 3406 
Q 934 3234 998 3109 
Q 1063 2984 1188 2881 
Q 1313 2778 1492 2681 
Q 1672 2584 1906 2469 
Q 2147 2350 2362 2219 
Q 2578 2088 2740 1928 
Q 2903 1769 2998 1575 
Q 3094 1381 3094 1131 
Q 3094 800 2964 570 
Q 2834 341 2614 197 
Q 2394 53 2106 -11 
Q 1819 -75 1500 -75 
Q 1394 -75 1237 -58 
Q 1081 -41 918 -8 
Q 756 25 611 73 
Q 466 122 378 181 
z
" transform="scale(0.015625)"/>
        <path id="SegoeUI-70" d="M 1044 463 
L 1031 463 
L 1031 -1472 
L 519 -1472 
L 519 3200 
L 1031 3200 
L 1031 2638 
L 1044 2638 
Q 1422 3275 2150 3275 
Q 2769 3275 3116 2845 
Q 3463 2416 3463 1694 
Q 3463 891 3072 408 
Q 2681 -75 2003 -75 
Q 1381 -75 1044 463 
z
M 1031 1753 
L 1031 1306 
Q 1031 909 1289 632 
Q 1547 356 1944 356 
Q 2409 356 2673 712 
Q 2938 1069 2938 1703 
Q 2938 2238 2691 2541 
Q 2444 2844 2022 2844 
Q 1575 2844 1303 2533 
Q 1031 2222 1031 1753 
z
" transform="scale(0.015625)"/>
        <path id="SegoeUI-79" d="M 3066 3200 
L 1594 -513 
Q 1200 -1506 488 -1506 
Q 288 -1506 153 -1466 
L 153 -1006 
Q 319 -1063 456 -1063 
Q 844 -1063 1038 -600 
L 1294 6 
L 44 3200 
L 613 3200 
L 1478 738 
Q 1494 691 1544 494 
L 1563 494 
Q 1578 569 1625 731 
L 2534 3200 
L 3066 3200 
z
" transform="scale(0.015625)"/>
       </defs>
       <use xlink:href="#SegoeUI-53"/>
       <use xlink:href="#SegoeUI-70" transform="translate(53.125 0)"/>
       <use xlink:href="#SegoeUI-65" transform="translate(111.914062 0)"/>
       <use xlink:href="#SegoeUI-63" transform="translate(164.208984 0)"/>
       <use xlink:href="#SegoeUI-69" transform="translate(210.400391 0)"/>
       <use xlink:href="#SegoeUI-61" transform="translate(234.619141 0)"/>
       <use xlink:href="#SegoeUI-6c" transform="translate(285.498047 0)"/>
       <use xlink:href="#SegoeUI-44" transform="translate(309.716797 0)"/>
       <use xlink:href="#SegoeUI-61" transform="translate(379.833984 0)"/>
       <use xlink:href="#SegoeUI-79" transform="translate(430.712891 0)"/>
      </g>
     </g>
    </g>
    <g id="ytick_5">
     <g id="text_12">
      <!-- ProductRelated -->
      <g style="fill: #262626" transform="translate(54.187188 223.896719) scale(0.11 -0.11)">
       <defs>
        <path id="SegoeUI-50" d="M 1113 1694 
L 1113 0 
L 588 0 
L 588 4481 
L 1819 4481 
Q 2538 4481 2933 4131 
Q 3328 3781 3328 3144 
Q 3328 2506 2889 2100 
Q 2450 1694 1703 1694 
L 1113 1694 
z
M 1113 4006 
L 1113 2169 
L 1663 2169 
Q 2206 2169 2492 2417 
Q 2778 2666 2778 3119 
Q 2778 4006 1728 4006 
L 1113 4006 
z
" transform="scale(0.015625)"/>
       </defs>
       <use xlink:href="#SegoeUI-50"/>
       <use xlink:href="#SegoeUI-72" transform="translate(56.005859 0)"/>
       <use xlink:href="#SegoeUI-6f" transform="translate(89.396484 0)"/>
       <use xlink:href="#SegoeUI-64" transform="translate(147.990234 0)"/>
       <use xlink:href="#SegoeUI-75" transform="translate(206.876953 0)"/>
       <use xlink:href="#SegoeUI-63" transform="translate(263.46875 0)"/>
       <use xlink:href="#SegoeUI-74" transform="translate(309.660156 0)"/>
       <use xlink:href="#SegoeUI-52" transform="translate(343.546875 0)"/>
       <use xlink:href="#SegoeUI-65" transform="translate(400.611328 0)"/>
       <use xlink:href="#SegoeUI-6c" transform="translate(452.90625 0)"/>
       <use xlink:href="#SegoeUI-61" transform="translate(477.125 0)"/>
       <use xlink:href="#SegoeUI-74" transform="translate(528.003906 0)"/>
       <use xlink:href="#SegoeUI-65" transform="translate(561.140625 0)"/>
       <use xlink:href="#SegoeUI-64" transform="translate(613.435547 0)"/>
      </g>
     </g>
    </g>
    <g id="ytick_6">
     <g id="text_13">
      <!-- ExitRates -->
      <g style="fill: #262626" transform="translate(84.894375 260.346719) scale(0.11 -0.11)">
       <defs>
        <path id="SegoeUI-45" d="M 2963 0 
L 588 0 
L 588 4481 
L 2863 4481 
L 2863 4006 
L 1113 4006 
L 1113 2516 
L 2731 2516 
L 2731 2044 
L 1113 2044 
L 1113 475 
L 2963 475 
L 2963 0 
z
" transform="scale(0.015625)"/>
        <path id="SegoeUI-78" d="M 2856 3200 
L 1781 1581 
L 2838 0 
L 2241 0 
L 1613 1038 
Q 1553 1134 1472 1281 
L 1459 1281 
Q 1444 1253 1313 1038 
L 672 0 
L 81 0 
L 1172 1569 
L 128 3200 
L 725 3200 
L 1344 2106 
Q 1413 1984 1478 1856 
L 1491 1856 
L 2291 3200 
L 2856 3200 
z
" transform="scale(0.015625)"/>
       </defs>
       <use xlink:href="#SegoeUI-45"/>
       <use xlink:href="#SegoeUI-78" transform="translate(50.585938 0)"/>
       <use xlink:href="#SegoeUI-69" transform="translate(96.484375 0)"/>
       <use xlink:href="#SegoeUI-74" transform="translate(120.703125 0)"/>
       <use xlink:href="#SegoeUI-52" transform="translate(154.589844 0)"/>
       <use xlink:href="#SegoeUI-61" transform="translate(214.404297 0)"/>
       <use xlink:href="#SegoeUI-74" transform="translate(265.283203 0)"/>
       <use xlink:href="#SegoeUI-65" transform="translate(298.419922 0)"/>
       <use xlink:href="#SegoeUI-73" transform="translate(350.714844 0)"/>
      </g>
     </g>
    </g>
    <g id="ytick_7">
     <g id="text_14">
      <!-- ProductRelated_Duration -->
      <g style="fill: #262626" transform="translate(7.2 296.796719) scale(0.11 -0.11)">
       <use xlink:href="#SegoeUI-50"/>
       <use xlink:href="#SegoeUI-72" transform="translate(56.005859 0)"/>
       <use xlink:href="#SegoeUI-6f" transform="translate(89.396484 0)"/>
       <use xlink:href="#SegoeUI-64" transform="translate(147.990234 0)"/>
       <use xlink:href="#SegoeUI-75" transform="translate(206.876953 0)"/>
       <use xlink:href="#SegoeUI-63" transform="translate(263.46875 0)"/>
       <use xlink:href="#SegoeUI-74" transform="translate(309.660156 0)"/>
       <use xlink:href="#SegoeUI-52" transform="translate(343.546875 0)"/>
       <use xlink:href="#SegoeUI-65" transform="translate(400.611328 0)"/>
       <use xlink:href="#SegoeUI-6c" transform="translate(452.90625 0)"/>
       <use xlink:href="#SegoeUI-61" transform="translate(477.125 0)"/>
       <use xlink:href="#SegoeUI-74" transform="translate(528.003906 0)"/>
       <use xlink:href="#SegoeUI-65" transform="translate(561.140625 0)"/>
       <use xlink:href="#SegoeUI-64" transform="translate(613.435547 0)"/>
       <use xlink:href="#SegoeUI-5f" transform="translate(672.322266 0)"/>
       <use xlink:href="#SegoeUI-44" transform="translate(713.826172 0)"/>
       <use xlink:href="#SegoeUI-75" transform="translate(783.943359 0)"/>
       <use xlink:href="#SegoeUI-72" transform="translate(840.535156 0)"/>
       <use xlink:href="#SegoeUI-61" transform="translate(875.300781 0)"/>
       <use xlink:href="#SegoeUI-74" transform="translate(926.179688 0)"/>
       <use xlink:href="#SegoeUI-69" transform="translate(960.066406 0)"/>
       <use xlink:href="#SegoeUI-6f" transform="translate(984.285156 0)"/>
       <use xlink:href="#SegoeUI-6e" transform="translate(1042.878906 0)"/>
      </g>
     </g>
    </g>
    <g id="ytick_8">
     <g id="text_15">
      <!-- is_new_visitor -->
      <g style="fill: #262626" transform="translate(62.572969 333.246719) scale(0.11 -0.11)">
       <defs>
        <path id="SegoeUI-77" d="M 4550 3200 
L 3591 0 
L 3059 0 
L 2400 2291 
Q 2363 2422 2350 2588 
L 2338 2588 
Q 2328 2475 2272 2297 
L 1556 0 
L 1044 0 
L 75 3200 
L 613 3200 
L 1275 794 
Q 1306 684 1319 506 
L 1344 506 
Q 1353 644 1400 800 
L 2138 3200 
L 2606 3200 
L 3269 788 
Q 3300 672 3316 500 
L 3341 500 
Q 3347 622 3394 788 
L 4044 3200 
L 4550 3200 
z
" transform="scale(0.015625)"/>
       </defs>
       <use xlink:href="#SegoeUI-69"/>
       <use xlink:href="#SegoeUI-73" transform="translate(24.21875 0)"/>
       <use xlink:href="#SegoeUI-5f" transform="translate(66.650391 0)"/>
       <use xlink:href="#SegoeUI-6e" transform="translate(108.154297 0)"/>
       <use xlink:href="#SegoeUI-65" transform="translate(164.746094 0)"/>
       <use xlink:href="#SegoeUI-77" transform="translate(217.041016 0)"/>
       <use xlink:href="#SegoeUI-5f" transform="translate(289.306641 0)"/>
       <use xlink:href="#SegoeUI-76" transform="translate(330.810547 0)"/>
       <use xlink:href="#SegoeUI-69" transform="translate(378.710938 0)"/>
       <use xlink:href="#SegoeUI-73" transform="translate(402.929688 0)"/>
       <use xlink:href="#SegoeUI-69" transform="translate(445.361328 0)"/>
       <use xlink:href="#SegoeUI-74" transform="translate(469.580078 0)"/>
       <use xlink:href="#SegoeUI-6f" transform="translate(502.716797 0)"/>
       <use xlink:href="#SegoeUI-72" transform="translate(561.310547 0)"/>
      </g>
     </g>
    </g>
   </g>
   <g id="patch_3">
    <path d="M 160.080934 59.445 
L 159.202372 59.445 
L 159.202372 88.605 
L 160.080934 88.605 
z
" clip-path="url(#pdb43776ee2)" style="fill: #ebd470; stroke: #736422; stroke-linejoin: miter"/>
   </g>
   <g id="patch_4">
    <path d="M 160.080934 95.895 
L 179.13475 95.895 
L 179.13475 125.055 
L 160.080934 125.055 
z
" clip-path="url(#pdb43776ee2)" style="fill: #ebd470; stroke: #736422; stroke-linejoin: miter"/>
   </g>
   <g id="patch_5">
    <path d="M 160.080934 132.345 
L 193.126539 132.345 
L 193.126539 161.505 
L 160.080934 161.505 
z
" clip-path="url(#pdb43776ee2)" style="fill: #ebd470; stroke: #736422; stroke-linejoin: miter"/>
   </g>
   <g id="patch_6">
    <path d="M 160.080934 168.795 
L 198.298387 168.795 
L 198.298387 197.955 
L 160.080934 197.955 
z
" clip-path="url(#pdb43776ee2)" style="fill: #ebd470; stroke: #736422; stroke-linejoin: miter"/>
   </g>
   <g id="patch_7">
    <path d="M 160.080934 205.245 
L 363.461203 205.245 
L 363.461203 234.405 
L 160.080934 234.405 
z
" clip-path="url(#pdb43776ee2)" style="fill: #ebd470; stroke: #736422; stroke-linejoin: miter"/>
   </g>
   <g id="patch_8">
    <path d="M 160.080934 241.695 
L 428.927808 241.695 
L 428.927808 270.855 
L 160.080934 270.855 
z
" clip-path="url(#pdb43776ee2)" style="fill: #ebd470; stroke: #736422; stroke-linejoin: miter"/>
   </g>
   <g id="patch_9">
    <path d="M 160.080934 278.145 
L 443.794727 278.145 
L 443.794727 307.305 
L 160.080934 307.305 
z
" clip-path="url(#pdb43776ee2)" style="fill: #ebd470; stroke: #736422; stroke-linejoin: miter"/>
   </g>
   <g id="patch_10">
    <path d="M 160.080934 314.595 
L 590.38419 314.595 
L 590.38419 343.755 
L 160.080934 343.755 
z
" clip-path="url(#pdb43776ee2)" style="fill: #ebd470; stroke: #736422; stroke-linejoin: miter"/>
   </g>
   <g id="line2d_7">
    <path clip-path="url(#pdb43776ee2)" style="fill: none; stroke: #424242; stroke-width: 2.25; stroke-linecap: round"/>
   </g>
   <g id="line2d_8">
    <path clip-path="url(#pdb43776ee2)" style="fill: none; stroke: #424242; stroke-width: 2.25; stroke-linecap: round"/>
   </g>
   <g id="line2d_9">
    <path clip-path="url(#pdb43776ee2)" style="fill: none; stroke: #424242; stroke-width: 2.25; stroke-linecap: round"/>
   </g>
   <g id="line2d_10">
    <path clip-path="url(#pdb43776ee2)" style="fill: none; stroke: #424242; stroke-width: 2.25; stroke-linecap: round"/>
   </g>
   <g id="line2d_11">
    <path clip-path="url(#pdb43776ee2)" style="fill: none; stroke: #424242; stroke-width: 2.25; stroke-linecap: round"/>
   </g>
   <g id="line2d_12">
    <path clip-path="url(#pdb43776ee2)" style="fill: none; stroke: #424242; stroke-width: 2.25; stroke-linecap: round"/>
   </g>
   <g id="line2d_13">
    <path clip-path="url(#pdb43776ee2)" style="fill: none; stroke: #424242; stroke-width: 2.25; stroke-linecap: round"/>
   </g>
   <g id="line2d_14">
    <path clip-path="url(#pdb43776ee2)" style="fill: none; stroke: #424242; stroke-width: 2.25; stroke-linecap: round"/>
   </g>
   <g id="line2d_15">
    <path d="M 160.080934 347.4 
L 160.080934 55.8 
" clip-path="url(#pdb43776ee2)" style="fill: none; stroke: #1f2430; stroke-linecap: round"/>
   </g>
   <g id="patch_11">
    <path d="M 137.643281 347.4 
L 137.643281 55.8 
" style="fill: none; stroke: #d7dbe7; stroke-width: 1.25; stroke-linejoin: miter; stroke-linecap: square"/>
   </g>
   <g id="patch_12">
    <path d="M 137.643281 347.4 
L 611.943281 347.4 
" style="fill: none; stroke: #d7dbe7; stroke-width: 1.25; stroke-linejoin: miter; stroke-linecap: square"/>
   </g>
  </g>
  <g id="text_16">
   <!-- KNN relies on visitor type and session-depth signals -->
   <g style="fill: #1f2430" transform="translate(137.643281 16.824062) scale(0.13 -0.13)">
    <defs>
     <path id="SegoeUI-Semibold-4b" d="M 3944 0 
L 2975 0 
L 1416 2050 
Q 1328 2166 1309 2206 
L 1297 2206 
L 1297 0 
L 553 0 
L 553 4481 
L 1297 4481 
L 1297 2375 
L 1309 2375 
Q 1347 2444 1416 2528 
L 2919 4481 
L 3809 4481 
L 2050 2331 
L 3944 0 
z
" transform="scale(0.015625)"/>
     <path id="SegoeUI-Semibold-4e" d="M 4353 0 
L 3541 0 
L 1400 3294 
Q 1319 3419 1266 3553 
L 1247 3553 
Q 1272 3409 1272 2938 
L 1272 0 
L 553 0 
L 553 4481 
L 1419 4481 
L 3488 1266 
Q 3619 1066 3656 991 
L 3669 991 
Q 3638 1169 3638 1594 
L 3638 4481 
L 4353 4481 
L 4353 0 
z
" transform="scale(0.015625)"/>
     <path id="SegoeUI-Semibold-20" transform="scale(0.015625)"/>
     <path id="SegoeUI-Semibold-72" d="M 2328 2509 
Q 2197 2613 1950 2613 
Q 1628 2613 1412 2322 
Q 1197 2031 1197 1531 
L 1197 0 
L 472 0 
L 472 3200 
L 1197 3200 
L 1197 2541 
L 1209 2541 
Q 1316 2878 1536 3067 
Q 1756 3256 2028 3256 
Q 2225 3256 2328 3197 
L 2328 2509 
z
" transform="scale(0.015625)"/>
     <path id="SegoeUI-Semibold-65" d="M 3181 1403 
L 1000 1403 
Q 1013 959 1273 718 
Q 1534 478 1991 478 
Q 2503 478 2931 784 
L 2931 200 
Q 2494 -75 1775 -75 
Q 1069 -75 667 361 
Q 266 797 266 1588 
Q 266 2334 708 2804 
Q 1150 3275 1806 3275 
Q 2463 3275 2822 2853 
Q 3181 2431 3181 1681 
L 3181 1403 
z
M 2481 1916 
Q 2478 2306 2297 2523 
Q 2116 2741 1797 2741 
Q 1484 2741 1267 2512 
Q 1050 2284 1000 1916 
L 2481 1916 
z
" transform="scale(0.015625)"/>
     <path id="SegoeUI-Semibold-6c" d="M 1200 0 
L 472 0 
L 472 4738 
L 1200 4738 
L 1200 0 
z
" transform="scale(0.015625)"/>
     <path id="SegoeUI-Semibold-69" d="M 838 3872 
Q 659 3872 532 3987 
Q 406 4103 406 4281 
Q 406 4459 532 4578 
Q 659 4697 838 4697 
Q 1022 4697 1150 4578 
Q 1278 4459 1278 4281 
Q 1278 4113 1150 3992 
Q 1022 3872 838 3872 
z
M 1197 0 
L 472 0 
L 472 3200 
L 1197 3200 
L 1197 0 
z
" transform="scale(0.015625)"/>
     <path id="SegoeUI-Semibold-73" d="M 272 100 
L 272 772 
Q 678 463 1169 463 
Q 1825 463 1825 850 
Q 1825 959 1769 1036 
Q 1713 1113 1617 1172 
Q 1522 1231 1392 1278 
Q 1263 1325 1103 1384 
Q 906 1463 748 1550 
Q 591 1638 486 1748 
Q 381 1859 328 2000 
Q 275 2141 275 2328 
Q 275 2559 384 2736 
Q 494 2913 678 3033 
Q 863 3153 1097 3214 
Q 1331 3275 1581 3275 
Q 2025 3275 2375 3141 
L 2375 2506 
Q 2038 2738 1600 2738 
Q 1463 2738 1352 2709 
Q 1241 2681 1162 2631 
Q 1084 2581 1040 2511 
Q 997 2441 997 2356 
Q 997 2253 1040 2181 
Q 1084 2109 1170 2054 
Q 1256 2000 1376 1954 
Q 1497 1909 1653 1856 
Q 1859 1772 2023 1684 
Q 2188 1597 2303 1486 
Q 2419 1375 2481 1229 
Q 2544 1084 2544 884 
Q 2544 641 2431 459 
Q 2319 278 2131 159 
Q 1944 41 1698 -17 
Q 1453 -75 1181 -75 
Q 656 -75 272 100 
z
" transform="scale(0.015625)"/>
     <path id="SegoeUI-Semibold-6f" d="M 1891 -75 
Q 1150 -75 708 373 
Q 266 822 266 1563 
Q 266 2369 727 2822 
Q 1188 3275 1969 3275 
Q 2719 3275 3137 2834 
Q 3556 2394 3556 1613 
Q 3556 847 3104 386 
Q 2653 -75 1891 -75 
z
M 1925 2697 
Q 1500 2697 1253 2400 
Q 1006 2103 1006 1581 
Q 1006 1078 1256 789 
Q 1506 500 1925 500 
Q 2353 500 2583 784 
Q 2813 1069 2813 1594 
Q 2813 2122 2583 2409 
Q 2353 2697 1925 2697 
z
" transform="scale(0.015625)"/>
     <path id="SegoeUI-Semibold-6e" d="M 3322 0 
L 2597 0 
L 2597 1803 
Q 2597 2700 1963 2700 
Q 1631 2700 1415 2451 
Q 1200 2203 1200 1825 
L 1200 0 
L 472 0 
L 472 3200 
L 1200 3200 
L 1200 2669 
L 1213 2669 
Q 1572 3275 2250 3275 
Q 2772 3275 3047 2936 
Q 3322 2597 3322 1956 
L 3322 0 
z
" transform="scale(0.015625)"/>
     <path id="SegoeUI-Semibold-76" d="M 3228 3200 
L 1991 0 
L 1206 0 
L 28 3200 
L 816 3200 
L 1525 963 
Q 1606 716 1625 531 
L 1634 531 
Q 1663 763 1722 950 
L 2466 3200 
L 3228 3200 
z
" transform="scale(0.015625)"/>
     <path id="SegoeUI-Semibold-74" d="M 2159 34 
Q 1947 -72 1600 -72 
Q 669 -72 669 822 
L 669 2631 
L 134 2631 
L 134 3200 
L 669 3200 
L 669 3941 
L 1394 4147 
L 1394 3200 
L 2159 3200 
L 2159 2631 
L 1394 2631 
L 1394 1031 
Q 1394 747 1497 625 
Q 1600 503 1841 503 
Q 2025 503 2159 609 
L 2159 34 
z
" transform="scale(0.015625)"/>
     <path id="SegoeUI-Semibold-79" d="M 3244 3200 
L 1800 -513 
Q 1350 -1506 538 -1506 
Q 309 -1506 156 -1466 
L 156 -863 
Q 328 -919 469 -919 
Q 875 -919 1075 -519 
L 1291 6 
L 19 3200 
L 822 3200 
L 1584 875 
Q 1597 831 1641 644 
L 1656 644 
Q 1672 716 1713 869 
L 2513 3200 
L 3244 3200 
z
" transform="scale(0.015625)"/>
     <path id="SegoeUI-Semibold-70" d="M 1209 472 
L 1197 472 
L 1197 -1472 
L 472 -1472 
L 472 3200 
L 1197 3200 
L 1197 2638 
L 1209 2638 
Q 1581 3275 2297 3275 
Q 2906 3275 3247 2847 
Q 3588 2419 3588 1697 
Q 3588 897 3203 415 
Q 2819 -66 2153 -66 
Q 1541 -66 1209 472 
z
M 1191 1734 
L 1191 1338 
Q 1191 988 1414 744 
Q 1638 500 1981 500 
Q 2384 500 2614 814 
Q 2844 1128 2844 1691 
Q 2844 2163 2630 2430 
Q 2416 2697 2050 2697 
Q 1663 2697 1427 2422 
Q 1191 2147 1191 1734 
z
" transform="scale(0.015625)"/>
     <path id="SegoeUI-Semibold-61" d="M 2928 0 
L 2225 0 
L 2225 500 
L 2213 500 
Q 1881 -75 1241 -75 
Q 769 -75 501 181 
Q 234 438 234 859 
Q 234 1766 1278 1916 
L 2228 2050 
Q 2228 2734 1578 2734 
Q 1006 2734 547 2341 
L 547 2975 
Q 1053 3275 1716 3275 
Q 2928 3275 2928 2081 
L 2928 0 
z
M 2228 1572 
L 1556 1478 
Q 1244 1438 1086 1327 
Q 928 1216 928 938 
Q 928 734 1073 604 
Q 1219 475 1463 475 
Q 1794 475 2011 708 
Q 2228 941 2228 1294 
L 2228 1572 
z
" transform="scale(0.015625)"/>
     <path id="SegoeUI-Semibold-64" d="M 3381 0 
L 2656 0 
L 2656 544 
L 2644 544 
Q 2294 -75 1566 -75 
Q 975 -75 620 354 
Q 266 784 266 1525 
Q 266 2319 658 2797 
Q 1050 3275 1703 3275 
Q 2350 3275 2644 2756 
L 2656 2756 
L 2656 4738 
L 3381 4738 
L 3381 0 
z
M 2666 1463 
L 2666 1881 
Q 2666 2222 2444 2459 
Q 2222 2697 1878 2697 
Q 1472 2697 1239 2394 
Q 1006 2091 1006 1553 
Q 1006 1066 1229 783 
Q 1453 500 1831 500 
Q 2203 500 2434 773 
Q 2666 1047 2666 1463 
z
" transform="scale(0.015625)"/>
     <path id="SegoeUI-Semibold-2d" d="M 2156 1481 
L 450 1481 
L 450 2016 
L 2156 2016 
L 2156 1481 
z
" transform="scale(0.015625)"/>
     <path id="SegoeUI-Semibold-68" d="M 3316 0 
L 2591 0 
L 2591 1750 
Q 2591 2700 1956 2700 
Q 1638 2700 1419 2425 
Q 1200 2150 1200 1722 
L 1200 0 
L 472 0 
L 472 4738 
L 1200 4738 
L 1200 2669 
L 1213 2669 
Q 1575 3275 2250 3275 
Q 3316 3275 3316 1972 
L 3316 0 
z
" transform="scale(0.015625)"/>
     <path id="SegoeUI-Semibold-67" d="M 3384 256 
Q 3384 -1506 1613 -1506 
Q 988 -1506 522 -1297 
L 522 -634 
Q 1047 -934 1519 -934 
Q 2659 -934 2659 188 
L 2659 538 
L 2647 538 
Q 2288 -75 1566 -75 
Q 981 -75 623 351 
Q 266 778 266 1497 
Q 266 2313 650 2794 
Q 1034 3275 1706 3275 
Q 2341 3275 2647 2756 
L 2659 2756 
L 2659 3200 
L 3384 3200 
L 3384 256 
z
M 2666 1466 
L 2666 1881 
Q 2666 2219 2442 2458 
Q 2219 2697 1884 2697 
Q 1472 2697 1239 2392 
Q 1006 2088 1006 1541 
Q 1006 1069 1229 786 
Q 1453 503 1822 503 
Q 2197 503 2431 773 
Q 2666 1044 2666 1466 
z
" transform="scale(0.015625)"/>
    </defs>
    <use xlink:href="#SegoeUI-Semibold-4b"/>
    <use xlink:href="#SegoeUI-Semibold-4e" transform="translate(61.083984 0)"/>
    <use xlink:href="#SegoeUI-Semibold-4e" transform="translate(137.792969 0)"/>
    <use xlink:href="#SegoeUI-Semibold-20" transform="translate(214.501953 0)"/>
    <use xlink:href="#SegoeUI-Semibold-72" transform="translate(241.992188 0)"/>
    <use xlink:href="#SegoeUI-Semibold-65" transform="translate(278.128906 0)"/>
    <use xlink:href="#SegoeUI-Semibold-6c" transform="translate(331.253906 0)"/>
    <use xlink:href="#SegoeUI-Semibold-69" transform="translate(357.376953 0)"/>
    <use xlink:href="#SegoeUI-Semibold-65" transform="translate(383.5 0)"/>
    <use xlink:href="#SegoeUI-Semibold-73" transform="translate(436.625 0)"/>
    <use xlink:href="#SegoeUI-Semibold-20" transform="translate(479.740234 0)"/>
    <use xlink:href="#SegoeUI-Semibold-6f" transform="translate(507.230469 0)"/>
    <use xlink:href="#SegoeUI-Semibold-6e" transform="translate(566.947266 0)"/>
    <use xlink:href="#SegoeUI-Semibold-20" transform="translate(625.296875 0)"/>
    <use xlink:href="#SegoeUI-Semibold-76" transform="translate(652.787109 0)"/>
    <use xlink:href="#SegoeUI-Semibold-69" transform="translate(703.519531 0)"/>
    <use xlink:href="#SegoeUI-Semibold-73" transform="translate(729.642578 0)"/>
    <use xlink:href="#SegoeUI-Semibold-69" transform="translate(772.757812 0)"/>
    <use xlink:href="#SegoeUI-Semibold-74" transform="translate(798.880859 0)"/>
    <use xlink:href="#SegoeUI-Semibold-6f" transform="translate(834.388672 0)"/>
    <use xlink:href="#SegoeUI-Semibold-72" transform="translate(894.105469 0)"/>
    <use xlink:href="#SegoeUI-Semibold-20" transform="translate(931.117188 0)"/>
    <use xlink:href="#SegoeUI-Semibold-74" transform="translate(958.607422 0)"/>
    <use xlink:href="#SegoeUI-Semibold-79" transform="translate(994.740234 0)"/>
    <use xlink:href="#SegoeUI-Semibold-70" transform="translate(1045.570312 0)"/>
    <use xlink:href="#SegoeUI-Semibold-65" transform="translate(1105.824219 0)"/>
    <use xlink:href="#SegoeUI-Semibold-20" transform="translate(1158.949219 0)"/>
    <use xlink:href="#SegoeUI-Semibold-61" transform="translate(1186.439453 0)"/>
    <use xlink:href="#SegoeUI-Semibold-6e" transform="translate(1238.636719 0)"/>
    <use xlink:href="#SegoeUI-Semibold-64" transform="translate(1296.986328 0)"/>
    <use xlink:href="#SegoeUI-Semibold-20" transform="translate(1357.240234 0)"/>
    <use xlink:href="#SegoeUI-Semibold-73" transform="translate(1384.730469 0)"/>
    <use xlink:href="#SegoeUI-Semibold-65" transform="translate(1427.845703 0)"/>
    <use xlink:href="#SegoeUI-Semibold-73" transform="translate(1480.970703 0)"/>
    <use xlink:href="#SegoeUI-Semibold-73" transform="translate(1524.085938 0)"/>
    <use xlink:href="#SegoeUI-Semibold-69" transform="translate(1567.201172 0)"/>
    <use xlink:href="#SegoeUI-Semibold-6f" transform="translate(1593.324219 0)"/>
    <use xlink:href="#SegoeUI-Semibold-6e" transform="translate(1653.041016 0)"/>
    <use xlink:href="#SegoeUI-Semibold-2d" transform="translate(1711.390625 0)"/>
    <use xlink:href="#SegoeUI-Semibold-64" transform="translate(1751.576172 0)"/>
    <use xlink:href="#SegoeUI-Semibold-65" transform="translate(1811.830078 0)"/>
    <use xlink:href="#SegoeUI-Semibold-70" transform="translate(1864.955078 0)"/>
    <use xlink:href="#SegoeUI-Semibold-74" transform="translate(1925.208984 0)"/>
    <use xlink:href="#SegoeUI-Semibold-68" transform="translate(1961.341797 0)"/>
    <use xlink:href="#SegoeUI-Semibold-20" transform="translate(2019.544922 0)"/>
    <use xlink:href="#SegoeUI-Semibold-73" transform="translate(2047.035156 0)"/>
    <use xlink:href="#SegoeUI-Semibold-69" transform="translate(2090.150391 0)"/>
    <use xlink:href="#SegoeUI-Semibold-67" transform="translate(2116.273438 0)"/>
    <use xlink:href="#SegoeUI-Semibold-6e" transform="translate(2176.527344 0)"/>
    <use xlink:href="#SegoeUI-Semibold-61" transform="translate(2234.876953 0)"/>
    <use xlink:href="#SegoeUI-Semibold-6c" transform="translate(2287.074219 0)"/>
    <use xlink:href="#SegoeUI-Semibold-73" transform="translate(2313.197266 0)"/>
   </g>
  </g>
  <g id="text_17">
   <!-- Permutation importance on the held-out test set, three repeats; larger decrease means stronger reliance. -->
   <g style="fill: #6f768a" transform="translate(137.643281 35.246812) scale(0.09 -0.09)">
    <defs>
     <path id="SegoeUI-2c" d="M 988 713 
L 488 -825 
L 122 -825 
L 488 713 
L 988 713 
z
" transform="scale(0.015625)"/>
     <path id="SegoeUI-3b" d="M 706 2575 
Q 559 2575 457 2678 
Q 356 2781 356 2925 
Q 356 3069 457 3169 
Q 559 3269 706 3269 
Q 850 3269 953 3169 
Q 1056 3069 1056 2925 
Q 1056 2781 953 2678 
Q 850 2575 706 2575 
z
M 988 713 
L 488 -825 
L 122 -825 
L 488 713 
L 988 713 
z
" transform="scale(0.015625)"/>
    </defs>
    <use xlink:href="#SegoeUI-50"/>
    <use xlink:href="#SegoeUI-65" transform="translate(52.255859 0)"/>
    <use xlink:href="#SegoeUI-72" transform="translate(104.550781 0)"/>
    <use xlink:href="#SegoeUI-6d" transform="translate(139.066406 0)"/>
    <use xlink:href="#SegoeUI-75" transform="translate(225.199219 0)"/>
    <use xlink:href="#SegoeUI-74" transform="translate(281.791016 0)"/>
    <use xlink:href="#SegoeUI-61" transform="translate(315.677734 0)"/>
    <use xlink:href="#SegoeUI-74" transform="translate(366.556641 0)"/>
    <use xlink:href="#SegoeUI-69" transform="translate(400.443359 0)"/>
    <use xlink:href="#SegoeUI-6f" transform="translate(424.662109 0)"/>
    <use xlink:href="#SegoeUI-6e" transform="translate(483.255859 0)"/>
    <use xlink:href="#SegoeUI-20" transform="translate(539.847656 0)"/>
    <use xlink:href="#SegoeUI-69" transform="translate(567.240234 0)"/>
    <use xlink:href="#SegoeUI-6d" transform="translate(591.458984 0)"/>
    <use xlink:href="#SegoeUI-70" transform="translate(677.591797 0)"/>
    <use xlink:href="#SegoeUI-6f" transform="translate(736.380859 0)"/>
    <use xlink:href="#SegoeUI-72" transform="translate(794.974609 0)"/>
    <use xlink:href="#SegoeUI-74" transform="translate(832.615234 0)"/>
    <use xlink:href="#SegoeUI-61" transform="translate(866.501953 0)"/>
    <use xlink:href="#SegoeUI-6e" transform="translate(917.380859 0)"/>
    <use xlink:href="#SegoeUI-63" transform="translate(973.972656 0)"/>
    <use xlink:href="#SegoeUI-65" transform="translate(1020.164062 0)"/>
    <use xlink:href="#SegoeUI-20" transform="translate(1072.458984 0)"/>
    <use xlink:href="#SegoeUI-6f" transform="translate(1099.851562 0)"/>
    <use xlink:href="#SegoeUI-6e" transform="translate(1158.445312 0)"/>
    <use xlink:href="#SegoeUI-20" transform="translate(1215.037109 0)"/>
    <use xlink:href="#SegoeUI-74" transform="translate(1242.429688 0)"/>
    <use xlink:href="#SegoeUI-68" transform="translate(1276.316406 0)"/>
    <use xlink:href="#SegoeUI-65" transform="translate(1332.908203 0)"/>
    <use xlink:href="#SegoeUI-20" transform="translate(1385.203125 0)"/>
    <use xlink:href="#SegoeUI-68" transform="translate(1412.595703 0)"/>
    <use xlink:href="#SegoeUI-65" transform="translate(1469.1875 0)"/>
    <use xlink:href="#SegoeUI-6c" transform="translate(1521.482422 0)"/>
    <use xlink:href="#SegoeUI-64" transform="translate(1545.701172 0)"/>
    <use xlink:href="#SegoeUI-2d" transform="translate(1604.587891 0)"/>
    <use xlink:href="#SegoeUI-6f" transform="translate(1644.578125 0)"/>
    <use xlink:href="#SegoeUI-75" transform="translate(1703.171875 0)"/>
    <use xlink:href="#SegoeUI-74" transform="translate(1759.763672 0)"/>
    <use xlink:href="#SegoeUI-20" transform="translate(1793.650391 0)"/>
    <use xlink:href="#SegoeUI-74" transform="translate(1821.042969 0)"/>
    <use xlink:href="#SegoeUI-65" transform="translate(1854.179688 0)"/>
    <use xlink:href="#SegoeUI-73" transform="translate(1906.474609 0)"/>
    <use xlink:href="#SegoeUI-74" transform="translate(1948.90625 0)"/>
    <use xlink:href="#SegoeUI-20" transform="translate(1982.792969 0)"/>
    <use xlink:href="#SegoeUI-73" transform="translate(2010.185547 0)"/>
    <use xlink:href="#SegoeUI-65" transform="translate(2052.617188 0)"/>
    <use xlink:href="#SegoeUI-74" transform="translate(2104.912109 0)"/>
    <use xlink:href="#SegoeUI-2c" transform="translate(2138.798828 0)"/>
    <use xlink:href="#SegoeUI-20" transform="translate(2160.478516 0)"/>
    <use xlink:href="#SegoeUI-74" transform="translate(2187.871094 0)"/>
    <use xlink:href="#SegoeUI-68" transform="translate(2221.757812 0)"/>
    <use xlink:href="#SegoeUI-72" transform="translate(2278.349609 0)"/>
    <use xlink:href="#SegoeUI-65" transform="translate(2311.740234 0)"/>
    <use xlink:href="#SegoeUI-65" transform="translate(2364.035156 0)"/>
    <use xlink:href="#SegoeUI-20" transform="translate(2416.330078 0)"/>
    <use xlink:href="#SegoeUI-72" transform="translate(2443.722656 0)"/>
    <use xlink:href="#SegoeUI-65" transform="translate(2477.113281 0)"/>
    <use xlink:href="#SegoeUI-70" transform="translate(2529.408203 0)"/>
    <use xlink:href="#SegoeUI-65" transform="translate(2588.197266 0)"/>
    <use xlink:href="#SegoeUI-61" transform="translate(2640.492188 0)"/>
    <use xlink:href="#SegoeUI-74" transform="translate(2691.371094 0)"/>
    <use xlink:href="#SegoeUI-73" transform="translate(2725.257812 0)"/>
    <use xlink:href="#SegoeUI-3b" transform="translate(2767.689453 0)"/>
    <use xlink:href="#SegoeUI-20" transform="translate(2789.369141 0)"/>
    <use xlink:href="#SegoeUI-6c" transform="translate(2816.761719 0)"/>
    <use xlink:href="#SegoeUI-61" transform="translate(2840.980469 0)"/>
    <use xlink:href="#SegoeUI-72" transform="translate(2891.859375 0)"/>
    <use xlink:href="#SegoeUI-67" transform="translate(2925.25 0)"/>
    <use xlink:href="#SegoeUI-65" transform="translate(2984.136719 0)"/>
    <use xlink:href="#SegoeUI-72" transform="translate(3036.431641 0)"/>
    <use xlink:href="#SegoeUI-20" transform="translate(3071.197266 0)"/>
    <use xlink:href="#SegoeUI-64" transform="translate(3098.589844 0)"/>
    <use xlink:href="#SegoeUI-65" transform="translate(3157.476562 0)"/>
    <use xlink:href="#SegoeUI-63" transform="translate(3209.771484 0)"/>
    <use xlink:href="#SegoeUI-72" transform="translate(3255.962891 0)"/>
    <use xlink:href="#SegoeUI-65" transform="translate(3289.353516 0)"/>
    <use xlink:href="#SegoeUI-61" transform="translate(3341.648438 0)"/>
    <use xlink:href="#SegoeUI-73" transform="translate(3392.527344 0)"/>
    <use xlink:href="#SegoeUI-65" transform="translate(3434.958984 0)"/>
    <use xlink:href="#SegoeUI-20" transform="translate(3487.253906 0)"/>
    <use xlink:href="#SegoeUI-6d" transform="translate(3514.646484 0)"/>
    <use xlink:href="#SegoeUI-65" transform="translate(3600.779297 0)"/>
    <use xlink:href="#SegoeUI-61" transform="translate(3653.074219 0)"/>
    <use xlink:href="#SegoeUI-6e" transform="translate(3703.953125 0)"/>
    <use xlink:href="#SegoeUI-73" transform="translate(3760.544922 0)"/>
    <use xlink:href="#SegoeUI-20" transform="translate(3802.976562 0)"/>
    <use xlink:href="#SegoeUI-73" transform="translate(3830.369141 0)"/>
    <use xlink:href="#SegoeUI-74" transform="translate(3872.800781 0)"/>
    <use xlink:href="#SegoeUI-72" transform="translate(3906.6875 0)"/>
    <use xlink:href="#SegoeUI-6f" transform="translate(3940.078125 0)"/>
    <use xlink:href="#SegoeUI-6e" transform="translate(3998.671875 0)"/>
    <use xlink:href="#SegoeUI-67" transform="translate(4055.263672 0)"/>
    <use xlink:href="#SegoeUI-65" transform="translate(4114.150391 0)"/>
    <use xlink:href="#SegoeUI-72" transform="translate(4166.445312 0)"/>
    <use xlink:href="#SegoeUI-20" transform="translate(4201.210938 0)"/>
    <use xlink:href="#SegoeUI-72" transform="translate(4228.603516 0)"/>
    <use xlink:href="#SegoeUI-65" transform="translate(4261.994141 0)"/>
    <use xlink:href="#SegoeUI-6c" transform="translate(4314.289062 0)"/>
    <use xlink:href="#SegoeUI-69" transform="translate(4338.507812 0)"/>
    <use xlink:href="#SegoeUI-61" transform="translate(4362.726562 0)"/>
    <use xlink:href="#SegoeUI-6e" transform="translate(4413.605469 0)"/>
    <use xlink:href="#SegoeUI-63" transform="translate(4470.197266 0)"/>
    <use xlink:href="#SegoeUI-65" transform="translate(4516.388672 0)"/>
    <use xlink:href="#SegoeUI-2e" transform="translate(4568.683594 0)"/>
   </g>
  </g>
 </g>
 <defs>
  <clipPath id="pdb43776ee2">
   <rect x="137.643281" y="55.8" width="474.3" height="291.6"/>
  </clipPath>
 </defs>
</svg>
